<?xml version="1.0" encoding="UTF-8"?>
<svg width="91.44mm" height="91.44mm" clip-rule="evenodd" fill-rule="evenodd" image-rendering="optimizeQuality" shape-rendering="geometricPrecision" text-rendering="geometricPrecision" version="1.1" viewBox="0 0 9144 9144" xmlns="http://www.w3.org/2000/svg">
 <defs>
  <style type="text/css">.fil1 {fill:white;fill-rule:nonzero} .fil0 {fill:url(#a)}</style>
  <linearGradient id="a" x1="10043" x2="-898.9" y1="6303" y2="2841" gradientUnits="userSpaceOnUse">
   <stop stop-color="#48CFAE" offset="0"/>
   <stop stop-color="#4FC0E8" offset="1"/>
  </linearGradient>
 </defs>
 <polygon class="fil0" points="0 0 9144 0 9144 9144 0 9144"/>
 <path class="fil1" d="m2540 2980h4064c47 0 85 38 85 84v3016c0 46-38 84-85 84h-4064c-47 0-85-38-85-84v-3016c0-46 38-84 85-84zm3979 169h-3894v2846h3894v-2846z"/>
 <path class="fil1" d="m2480 3124c-33-33-33-86 0-119s86-33 120-1l2032 2032c33 33 33 86 0 119s-86 33-120 1l-2032-2032z"/>
 <path class="fil1" d="m6544 3004c34-32 87-32 120 1s33 86 0 119l-2032 2032c-33 32-87 32-120-1s-33-86 1-119l2031-2032z"/>
</svg>
