<?xml version="1.0" encoding="utf-8"?>
<!-- Generator: Adobe Illustrator 21.0.0, SVG Export Plug-In . SVG Version: 6.00 Build 0)  -->
<svg version="1.1" xmlns="http://www.w3.org/2000/svg" xmlns:xlink="http://www.w3.org/1999/xlink" x="0px" y="0px"
	 viewBox="0 0 708.7 566.9" style="enable-background:new 0 0 708.7 566.9;" xml:space="preserve">
<style type="text/css">
	.st0{fill:#FFFFFF;}
	.st1{fill:#7895A4;}
	.st2{fill:#00BABC;}
	.st3{fill:#676764;}
	.st4{fill:#F0D0B4;}
	.st5{fill:#CEAB97;}
	.st6{fill:#FBB040;}
	.st7{fill:#1B75BC;}
	.st8{fill:#A4D5DD;}
	.st9{fill:#DA1C5C;}
	.st10{fill:#F5E0CD;}
	.st11{fill:#CB8C84;}
	.st12{fill:#ED145B;}
	.st13{fill:#7D4921;}
	.st14{fill:#A46C35;}
	.st15{fill:#808285;}
	.st16{fill:#8B4324;}
</style>
<g id="bg">
	<rect x="-2" y="-4" class="st0" width="713" height="575"/>
</g>
<g id="colorful_backgrounds">
	<circle class="st1" cx="480.5" cy="94.5" r="55.9"/>
	<circle class="st2" cx="89.8" cy="93.9" r="56"/>
	<circle class="st1" cx="220.1" cy="94.5" r="56"/>
	<circle class="st2" cx="350.2" cy="94" r="55.9"/>
	<circle class="st2" cx="611.2" cy="94.2" r="56"/>
	<circle class="st1" cx="89.8" cy="224.9" r="56"/>
	<circle class="st2" cx="220.1" cy="225.5" r="56"/>
	<circle class="st1" cx="350.2" cy="224.9" r="55.9"/>
	<circle class="st2" cx="480.5" cy="225.5" r="55.9"/>
	<circle class="st1" cx="611.2" cy="225.2" r="56"/>
	<circle class="st2" cx="90.1" cy="354.7" r="55.9"/>
	<circle class="st1" cx="220.4" cy="355.3" r="55.9"/>
	<circle class="st2" cx="350.5" cy="354.7" r="56"/>
	<circle class="st1" cx="480.8" cy="355.3" r="55.9"/>
	<circle class="st2" cx="611.5" cy="355" r="56"/>
	<circle class="st1" cx="90.1" cy="485.7" r="55.9"/>
	<circle class="st2" cx="220.4" cy="486.3" r="55.9"/>
	<circle class="st1" cx="350.5" cy="485.7" r="56"/>
	<circle class="st2" cx="480.8" cy="486.3" r="55.9"/>
	<circle class="st1" cx="611.5" cy="486" r="56"/>
</g>
<g id="body">
	<g>
		<path class="st3" d="M101.1,127.5c-1.2,0.5-3.4,1.2-3.3,1.2c0,0.4-0.1,0.9-0.1,1.3c-0.7,4.9-3.7,8.6-7.3,8.6
			c-3.5,0-6.5-3.6-7.3-8.4c-0.1-0.4-0.1-0.8-0.2-1.3c0,0,0,0,0,0c-1.2-0.3-2.5-0.7-3.6-1.2c-5.5,3.6-9.7,9.9-11.8,17.5
			c6.9,3,14.4,4.7,22.4,4.7c8.3,0,16.2-1.8,23.3-5.1C111,137.2,106.7,131,101.1,127.5z"/>
		<path class="st4" d="M83,130.2c0.8,4.8,3.7,8.4,7.3,8.4c3.6,0,6.6-3.7,7.3-8.6c-2.2,0.7-4.9,1.2-7.7,1.2
			C87.4,131.1,85.1,130.8,83,130.2z"/>
		<path class="st5" d="M83,130.2c2.1,0.6,4.4,0.9,6.9,0.9c2.8,0,5.5-0.4,7.7-1.2c0.1-0.4,0.1-0.8,0.1-1.3c-0.1,0-0.2,0-0.3,0.1
			c-0.4,0.1-0.9,0.2-1.3,0.3c-0.1,0-0.3,0.1-0.4,0.1c-0.6,0.1-1.1,0.2-1.7,0.3c-0.2,0-0.3,0-0.5,0.1c-0.5,0.1-0.9,0.1-1.4,0.1
			c-0.2,0-0.3,0-0.5,0c-0.6,0-1.2,0.1-1.8,0.1c0,0,0,0,0,0h0c0,0,0,0,0,0c-0.5,0-1.1,0-1.6-0.1c-0.2,0-0.3,0-0.5,0
			c-0.4,0-0.8-0.1-1.2-0.1c-0.1,0-0.3,0-0.4-0.1c-0.5-0.1-1-0.1-1.4-0.2c0,0-0.1,0-0.1,0c-0.6-0.1-1.1-0.2-1.6-0.4c0,0,0,0,0,0
			C82.9,129.4,82.9,129.8,83,130.2z"/>
	</g>
	<g>
		<path class="st2" d="M205.1,124.3c-8.1,3.6-14,9.8-15.5,17.1c8.8,5.7,19.2,9,30.5,9c11.8,0,22.8-3.7,31.8-9.9
			c-1.8-6.9-7.4-12.8-15.3-16.2l-15.8,15.8L205.1,124.3z"/>
		<path d="M205.4,124.2c-0.1,0-0.2,0.1-0.3,0.1l15.8,15.8l15.8-15.8c-0.1,0-0.2-0.1-0.3-0.1c-4.5,2.9-9.8,4.6-15.5,4.6
			C215.2,128.8,209.8,127.1,205.4,124.2z"/>
	</g>
	<g>
		<path d="M343.5,131.3c-3.2-0.7-6.2-2-9-3.8c-3.4,4.4-6.3,10.1-8.5,16.9c6.9,3.3,14.6,5.2,22.7,5.5L343.5,131.3z"/>
		<path d="M356.9,131.1l-5.2,18.7c7.9-0.2,15.4-2.1,22.2-5.2c-2.2-6.9-5.2-12.7-8.6-17.1C362.8,129.2,359.9,130.4,356.9,131.1z"/>
		<path class="st6" d="M343.5,131.3l5.2,18.6c0.5,0,1,0,1.5,0c0.5,0,1,0,1.5,0l5.2-18.7c-2.2,0.6-4.6,0.9-7,0.9
			C347.7,132,345.5,131.8,343.5,131.3z"/>
	</g>
	<path class="st7" d="M480.6,150.5c21.4,0,40-12,49.4-29.7c-6.2-7.4-14.1-13.4-23.1-17.4c-4.3,10.4-14.5,17.7-26.5,17.7
		c-11.9,0-22.2-7.3-26.5-17.7c-8.9,4-16.7,9.8-22.9,17.1C440.4,138.4,459.1,150.5,480.6,150.5z"/>
	<g>
		<path class="st3" d="M611.6,130.8c-10,0-18.9-5.2-24-13c-4.5,5.8-7.8,13.2-9.4,21.6c9.3,6.8,20.7,10.8,33.1,10.8
			c12.6,0,24.3-4.2,33.7-11.3c-1.7-8.2-4.9-15.4-9.3-21.1C630.5,125.7,621.6,130.8,611.6,130.8z"/>
		<g>
			<path class="st8" d="M592.2,123.3v23.6c2.3,0.8,4.6,1.5,7,2v-20.9C596.7,126.8,594.3,125.2,592.2,123.3z"/>
			<path class="st8" d="M630.8,123.4c-2.1,1.9-4.4,3.5-7,4.7v20.7c2.4-0.6,4.7-1.3,7-2.1V123.4z"/>
		</g>
	</g>
	<path class="st7" d="M96.9,259.7c-1,10.3-3.8,17.7-7.1,17.7c-3.3,0-6-7.4-7.1-17.6c-2.5-0.6-4.8-1.6-7-2.8
		c-2.4,5.5-4.5,12.3-6.2,20.1c6.3,2.4,13.1,3.8,20.3,3.8c7.2,0,14.1-1.4,20.4-3.8c-1.7-7.9-3.8-14.8-6.2-20.2
		C101.8,258.1,99.4,259,96.9,259.7z"/>
	<g>
		<path class="st9" d="M233.1,280c4.2-1,8.2-2.5,12-4.4c-2.7-3.5-5.7-6.5-9.1-8.8c0.1,0.7,0.1,1.4,0.1,2.1
			C236.2,273,235,276.8,233.1,280z"/>
		<path class="st9" d="M204.2,266.8c-3.3,2.3-6.4,5.3-9.1,8.8c3.8,1.9,7.8,3.4,12,4.4c-1.9-3.1-3-7-3-11.1
			C204.1,268.1,204.1,267.5,204.2,266.8z"/>
		<path class="st6" d="M207.8,268.8c0-1.6,0.2-3.1,0.6-4.6c-1.5,0.7-2.9,1.5-4.2,2.5c-0.1,0.7-0.1,1.4-0.1,2.1c0,4.2,1.1,8,3,11.1
			c2,0.5,4.1,0.9,6.2,1.1C210,278.5,207.8,274,207.8,268.8z"/>
		<path class="st6" d="M232.5,268.8c0,5.1-2.2,9.6-5.6,12.2c2.1-0.3,4.2-0.6,6.2-1.1c1.9-3.1,3-7,3-11.1c0-0.7,0-1.4-0.1-2.1
			c-1.4-0.9-2.8-1.8-4.2-2.5C232.3,265.7,232.5,267.3,232.5,268.8z"/>
		<path class="st10" d="M232.5,268.8c0-1.6-0.2-3.1-0.6-4.6c-0.1,0-0.2-0.1-0.3-0.1c-3.7,0.8-7.5,1.2-11.5,1.2
			c-3.9,0-7.8-0.4-11.5-1.2c-0.1,0-0.2,0.1-0.3,0.1c-0.4,1.4-0.6,3-0.6,4.6c0,5.1,2.2,9.6,5.6,12.2c2.2,0.3,4.5,0.4,6.8,0.4
			c2.3,0,4.6-0.1,6.8-0.4C230.3,278.5,232.5,274,232.5,268.8z"/>
		<path class="st11" d="M220.1,264.8c-3.2,0-6.4-0.5-9.3-1.5c-0.7,0.3-1.5,0.6-2.2,0.9c3.7,0.8,7.5,1.2,11.5,1.2
			c3.9,0,7.8-0.4,11.5-1.2c-0.7-0.3-1.4-0.6-2.2-0.9C226.5,264.2,223.4,264.8,220.1,264.8z"/>
	</g>
	<path d="M350.2,280.9c19.3,0,36.3-9.8,46.3-24.6c-5.3-4.2-11.5-7.7-18.3-10.3c-2.1,13.7-14,24.2-28.3,24.2
		c-14.3,0-26.1-10.4-28.3-24.1c-6.6,2.6-12.6,6-17.8,10.1C313.9,271.1,330.9,280.9,350.2,280.9z"/>
	<g>
		<path class="st7" d="M510.8,272.4c-0.4-11.6-1.2-22.6-2.4-33c-0.9,4.5-2.9,8.7-5.6,12.2c2.7,6.5,4.4,14.3,4.7,22.7
			C508.7,273.8,509.8,273.1,510.8,272.4z"/>
		<path class="st7" d="M452.2,239.7c-1.1,10.3-1.9,21.3-2.3,32.8c1.1,0.7,2.2,1.4,3.4,2c0.3-8.4,2-16.1,4.7-22.6
			C455.1,248.4,453.1,244.2,452.2,239.7z"/>
		<path d="M499.4,255.4c2.5,6,4,13.2,4.1,21.1c1.4-0.6,2.7-1.3,4-2c-0.3-8.4-2-16.2-4.7-22.7C501.8,253,500.7,254.2,499.4,255.4z"/>
		<path d="M461.4,255.5c-1.3-1.1-2.4-2.3-3.5-3.6c-2.7,6.5-4.3,14.3-4.7,22.6c1.3,0.7,2.7,1.4,4,2
			C457.4,268.7,458.9,261.5,461.4,255.5z"/>
		<path class="st7" d="M480.3,262.7c-7.3,0-13.9-2.7-19-7.2c-2.5,6-4,13.2-4.1,21c7,3.2,14.8,5,23.1,5c8.3,0,16.1-1.8,23.2-5
			c-0.1-7.8-1.6-15.1-4.1-21.1C494.3,259.9,487.7,262.7,480.3,262.7z"/>
	</g>
	<path d="M612.2,259.3c-5.3,0-10.3-1.5-14.6-4c-1.9,6.5-3.4,14.3-4.1,23c5.6,1.8,11.5,2.9,17.7,2.9c6.2,0,12.1-1,17.7-2.9
		c-0.7-8.3-2.1-15.7-3.8-22C621.2,258.2,616.8,259.3,612.2,259.3z"/>
	<g>
		<path d="M83.4,392c-3.6-0.8-7-2.3-10-4.3c-2.8,4.8-5.3,10.7-7.3,17.6c6.6,3.1,13.8,5,21.5,5.3L83.4,392z"/>
		<path d="M96.4,391.9l-4.3,18.7c7.5-0.3,14.6-2,21-4.9c-2-7-4.5-13.1-7.3-17.9C103,389.7,99.8,391.1,96.4,391.9z"/>
		<path class="st8" d="M83.4,392l4.2,18.6c0.8,0,1.6,0.1,2.4,0.1c0.7,0,1.4,0,2-0.1l4.3-18.7c-2.2,0.5-4.4,0.8-6.7,0.8
			C87.5,392.7,85.4,392.5,83.4,392z"/>
	</g>
	<path class="st3" d="M220.5,411.3c18.9,0,35.6-9.4,45.8-23.8c-5.4-5.6-11.8-10.3-19-13.7c-3.9,11.2-14.6,19.2-27.1,19.2
		c-12.7,0-23.4-8.2-27.2-19.6c0-0.1-0.1-0.2-0.1-0.3c-7.2,3.2-13.6,7.6-19.1,13C183.8,401.3,201,411.3,220.5,411.3z"/>
	<g>
		<path class="st7" d="M351.1,390.1c-3.8,0-7.4-0.7-10.7-2.1v21.7c3.3,0.6,6.6,0.9,10,0.9c3.9,0,7.7-0.4,11.4-1.2V388
			C358.5,389.4,354.9,390.1,351.1,390.1z"/>
		<path class="st7" d="M367.9,384.7v23.2c4.1-1.4,8.1-3.2,11.7-5.4c-0.9-9.6-2-18.7-3.5-27C374.1,379.1,371.3,382.3,367.9,384.7z"/>
		<path class="st7" d="M334.4,384.7c-3.3-2.4-6.1-5.5-8.2-9.1c-1.5,8.5-2.7,17.8-3.6,27.7c3.7,2.1,7.6,3.8,11.7,5.1V384.7z"/>
		<path d="M334.4,384.7v23.6c2,0.6,4,1.1,6.1,1.4V388C338.3,387.2,336.2,386,334.4,384.7z"/>
		<path d="M361.8,409.5c2.1-0.4,4.1-1,6.1-1.6v-23.2c-1.9,1.4-3.9,2.5-6.1,3.4V409.5z"/>
	</g>
	<g>
		<path class="st5" d="M499.9,402.7c0,2-0.4,3.9-1.2,5.7c4.1-1.4,8-3.3,11.7-5.5c-4.4-4.9-9.7-8.7-15.5-11.1
			C498,394.6,499.9,398.4,499.9,402.7z"/>
		<path class="st5" d="M466.7,391.7c-5.9,2.4-11.2,6.2-15.5,11.1c3.6,2.3,7.5,4.1,11.7,5.5c-0.8-1.8-1.2-3.7-1.2-5.7
			C461.7,398.5,463.6,394.6,466.7,391.7z"/>
		<path class="st3" d="M498.7,408.3c0.8-1.8,1.2-3.7,1.2-5.7c0-4.2-1.9-8.1-5.1-11c-0.7-0.3-1.3-0.5-2-0.8c-3.1,3-7.3,4.8-12,4.8
			c-4.7,0-9-1.8-12-4.8c-0.7,0.2-1.3,0.5-2,0.8c-3.1,2.9-5.1,6.7-5.1,11c0,2,0.4,3.9,1.2,5.7c5.6,1.9,11.6,2.9,17.9,2.9
			C487,411.3,493.1,410.2,498.7,408.3z"/>
		<path class="st5" d="M480.5,392.6c-3.8,0-7.4-0.7-10.6-2c-0.4,0.1-0.7,0.3-1.1,0.4c3.1,3,7.3,4.8,12,4.8c4.7,0,9-1.8,12-4.8
			c-0.5-0.2-1-0.3-1.4-0.5C488,391.9,484.3,392.6,480.5,392.6z"/>
	</g>
	<path class="st0" d="M628.8,392.9c-0.1,0-0.2-0.1-0.3-0.1c-4.5,2.9-9.8,4.6-15.5,4.6c-5.7,0-11.1-1.7-15.5-4.6
		c-0.1,0-0.2,0.1-0.3,0.1l15.8,16L628.8,392.9z"/>
	<path class="st12" d="M90.2,521.9c-6.4,0-12.4-2.1-17.2-5.7c-3.6,5.2-6.2,12-7.6,19.8c7.5,3.7,15.9,5.8,24.8,5.8s17.3-2.1,24.8-5.8
		c-1.4-7.7-4-14.5-7.6-19.7C102.5,519.7,96.6,521.9,90.2,521.9z"/>
	<g>
		<path d="M240.2,515.4c-4.2,4.4-9.7,7.4-15.9,8.5c-1.1,6.7-2.6,10.9-4.2,10.9c-1.6,0-3.1-4.1-4.2-10.7c-5.9-0.7-11.3-3.3-15.6-7.1
			c-0.9,6.4-1.5,13.4-1.5,20.7c0,0.1,0,0.1,0,0.2c6.6,2.8,13.9,4.3,21.6,4.3c7.6,0,14.8-1.5,21.4-4.3c0-0.1,0-0.2,0-0.3
			C241.9,529.8,241.3,522.2,240.2,515.4z"/>
		<path class="st6" d="M215.9,524c1.1,6.6,2.6,10.7,4.2,10.7c1.7,0,3.2-4.2,4.2-10.9c-1.6,0.3-3.2,0.4-4.9,0.4
			C218.3,524.3,217.1,524.2,215.9,524z"/>
	</g>
	<path class="st3" d="M359.5,531.5c-2.7,0.9-5.6,1.4-8.6,1.4c-3.1,0-6-0.5-8.8-1.5c-3.9,1.4-7.4,3.7-10.3,6.7
		c5.9,2.3,12.2,3.6,18.9,3.6c6.7,0,13.1-1.3,18.9-3.6C366.8,535.2,363.3,532.9,359.5,531.5z"/>
	<g>
		<path class="st6" d="M622.2,522.5c-3.2,1.3-6.9,2-10.7,2c-3.9,0-7.5-0.7-10.7-2c-6.1,2.6-11.3,7.3-14.7,13.3
			c7.6,3.9,16.3,6.1,25.4,6.1c9.2,0,17.8-2.2,25.4-6.1C633.5,529.8,628.3,525.1,622.2,522.5z"/>
		<path class="st9" d="M622.2,522.5c-1.1-0.4-2.1-0.8-3.2-1.1c-2.4,0.7-5,1.1-7.7,1.1c-2.6,0-5.1-0.4-7.5-1c-1,0.3-2.1,0.7-3.1,1.1
			c3.2,1.3,6.9,2,10.7,2C615.4,524.6,619,523.8,622.2,522.5z"/>
	</g>
	<path class="st8" d="M489.5,524.9c-2.4,1.1-5.2,1.8-8.2,1.8c-3,0-5.8-0.7-8.2-1.8c-4.5,2.8-8.2,7.9-10.6,14.3
		c5.7,2,11.9,3.1,18.3,3.1c6.7,0,13.2-1.2,19.2-3.4C497.6,532.6,493.9,527.7,489.5,524.9z"/>
</g>
<g id="face">
	<g>
		<path class="st4" d="M255.4,96.5c0-3.3-2.6-6.1-5.9-6.3v-4.2c0-15.8-12.8-28.7-28.7-28.7c-15.8,0-28.7,12.8-28.7,28.7v4.2
			c-3.3,0.3-5.9,3-5.9,6.3c0,3.4,2.7,6.2,6,6.4c1.4,14.6,13.6,26,28.6,26c14.9,0,27.2-11.4,28.6-26
			C252.8,102.6,255.4,99.8,255.4,96.5z"/>
		<path class="st5" d="M189.3,96.5c0,1.6,1.3,2.9,2.9,2.9v-5.9C190.6,93.6,189.3,94.9,189.3,96.5z"/>
		<path class="st5" d="M252.5,96.5c0,1.6-1.3,2.9-2.9,2.9v-5.9C251.2,93.6,252.5,94.9,252.5,96.5z"/>
	</g>
	<g>
		<path class="st10" d="M384.5,99.7c0-3.3-2.6-6.1-5.9-6.3v-4.2c0-15.8-12.8-28.7-28.7-28.7c-15.8,0-28.7,12.8-28.7,28.7v4.2
			c-3.3,0.3-5.9,3-5.9,6.3c0,3.4,2.7,6.2,6,6.4c1.4,14.6,13.6,26,28.6,26c14.9,0,27.2-11.4,28.6-26
			C381.8,105.8,384.5,103.1,384.5,99.7z"/>
		<path class="st5" d="M318.3,99.8c0,1.6,1.3,2.9,2.9,2.9v-5.9C319.6,96.8,318.3,98.1,318.3,99.8z"/>
		<path class="st5" d="M381.6,99.8c0,1.6-1.3,2.9-2.9,2.9v-5.9C380.2,96.8,381.6,98.1,381.6,99.8z"/>
	</g>
	<g>
		<path class="st5" d="M514.9,88.8c0-3.3-2.6-6.1-5.9-6.3v-4.2c0-15.8-12.8-28.7-28.7-28.7c-15.8,0-28.7,12.8-28.7,28.7v4.2
			c-3.3,0.3-5.9,3-5.9,6.3c0,3.4,2.7,6.2,6,6.4c1.4,14.6,13.6,26,28.6,26c14.9,0,27.2-11.4,28.6-26
			C512.2,94.9,514.9,92.2,514.9,88.8z"/>
		<path class="st13" d="M448.7,88.9c0,1.6,1.3,2.9,2.9,2.9v-5.9C450,85.9,448.7,87.2,448.7,88.9z"/>
		<path class="st13" d="M512,88.9c0,1.6-1.3,2.9-2.9,2.9v-5.9C510.7,85.9,512,87.2,512,88.9z"/>
	</g>
	<g>
		<path class="st4" d="M646.1,98.5c0-3.3-2.6-6.1-5.9-6.3v-4.2c0-15.8-12.8-28.7-28.7-28.7c-15.8,0-28.7,12.8-28.7,28.7v4.2
			c-3.3,0.3-5.9,3-5.9,6.3c0,3.4,2.7,6.2,6,6.4c1.4,14.6,13.6,26,28.6,26c14.9,0,27.2-11.4,28.6-26
			C643.4,104.6,646.1,101.8,646.1,98.5z"/>
		<path class="st5" d="M579.9,98.5c0,1.6,1.3,2.9,2.9,2.9v-5.9C581.2,95.6,579.9,96.9,579.9,98.5z"/>
		<path class="st5" d="M643.2,98.5c0,1.6-1.3,2.9-2.9,2.9v-5.9C641.8,95.6,643.2,96.9,643.2,98.5z"/>
	</g>
	<g>
		<path class="st4" d="M647.4,365.1c0-3.3-2.6-6.1-5.9-6.3v-4.2c0-15.8-12.8-28.7-28.7-28.7c-15.8,0-28.7,12.8-28.7,28.7v4.2
			c-3.3,0.3-5.9,3-5.9,6.3c0,3.4,2.7,6.2,6,6.4c1.4,14.6,13.6,26,28.6,26c14.9,0,27.2-11.4,28.6-26
			C644.8,371.2,647.4,368.5,647.4,365.1z"/>
		<path class="st5" d="M581.3,365.2c0,1.6,1.3,2.9,2.9,2.9v-5.9C582.6,362.2,581.3,363.5,581.3,365.2z"/>
		<path class="st5" d="M644.5,365.2c0,1.6-1.3,2.9-2.9,2.9v-5.9C643.2,362.2,644.5,363.5,644.5,365.2z"/>
	</g>
	<g>
		<path class="st4" d="M645.8,490.1c0-3.3-2.6-6.1-5.9-6.3v-4.2c0-15.8-12.8-28.7-28.7-28.7c-15.8,0-28.7,12.8-28.7,28.7v4.2
			c-3.3,0.3-5.9,3-5.9,6.3c0,3.4,2.7,6.2,6,6.4c1.4,14.6,13.6,26,28.6,26c14.9,0,27.2-11.4,28.6-26
			C643.2,496.3,645.8,493.5,645.8,490.1z"/>
		<path class="st11" d="M579.7,490.2c0,1.6,1.3,2.9,2.9,2.9v-5.9C581,487.3,579.7,488.6,579.7,490.2z"/>
		<path class="st11" d="M642.9,490.2c0,1.6-1.3,2.9-2.9,2.9v-5.9C641.6,487.3,642.9,488.6,642.9,490.2z"/>
	</g>
	<g>
		<path class="st10" d="M515.8,492.2c0-3.3-2.6-6.1-5.9-6.3v-4.2c0-15.8-12.8-28.7-28.7-28.7c-15.8,0-28.7,12.8-28.7,28.7v4.2
			c-3.3,0.3-5.9,3-5.9,6.3c0,3.4,2.7,6.2,6,6.4c1.4,14.6,13.6,26,28.6,26c14.9,0,27.2-11.4,28.6-26
			C513.2,498.4,515.8,495.6,515.8,492.2z"/>
		<path class="st5" d="M449.7,492.3c0,1.6,1.3,2.9,2.9,2.9v-5.9C451,489.4,449.7,490.7,449.7,492.3z"/>
		<path class="st5" d="M512.9,492.3c0,1.6-1.3,2.9-2.9,2.9v-5.9C511.6,489.4,512.9,490.7,512.9,492.3z"/>
	</g>
	<g>
		<path class="st5" d="M385.2,499.9c0-3.3-2.6-6.1-5.9-6.3v-4.2c0-15.8-12.8-28.7-28.7-28.7c-15.8,0-28.7,12.8-28.7,28.7v4.2
			c-3.3,0.3-5.9,3-5.9,6.3c0,3.4,2.7,6.2,6,6.4c1.4,14.6,13.6,26,28.6,26c14.9,0,27.2-11.4,28.6-26
			C382.5,506.1,385.2,503.3,385.2,499.9z"/>
		<path class="st13" d="M319,500c0,1.6,1.3,2.9,2.9,2.9v-5.9C320.4,497.1,319,498.4,319,500z"/>
		<path class="st13" d="M382.3,500c0,1.6-1.3,2.9-2.9,2.9v-5.9C381,497.1,382.3,498.4,382.3,500z"/>
	</g>
	<g>
		<path class="st10" d="M385.7,357.8c0-3.3-2.6-6.1-5.9-6.3v-4.2c0-15.8-12.8-28.7-28.7-28.7c-15.8,0-28.7,12.8-28.7,28.7v4.2
			c-3.3,0.3-5.9,3-5.9,6.3c0,3.4,2.7,6.2,6,6.4c1.4,14.6,13.6,26,28.6,26c14.9,0,27.2-11.4,28.6-26
			C383,363.9,385.7,361.2,385.7,357.8z"/>
		<path class="st5" d="M319.5,357.9c0,1.6,1.3,2.9,2.9,2.9v-5.9C320.8,354.9,319.5,356.2,319.5,357.9z"/>
		<path class="st5" d="M382.8,357.9c0,1.6-1.3,2.9-2.9,2.9v-5.9C381.5,354.9,382.8,356.2,382.8,357.9z"/>
	</g>
	<g>
		<path class="st4" d="M254.7,360.7c0-3.3-2.6-6.1-5.9-6.3v-4.2c0-15.8-12.8-28.7-28.7-28.7c-15.8,0-28.7,12.8-28.7,28.7v4.2
			c-3.3,0.3-5.9,3-5.9,6.3c0,3.4,2.7,6.2,6,6.4c1.4,14.6,13.6,26,28.6,26c14.9,0,27.2-11.4,28.6-26C252,366.8,254.7,364,254.7,360.7
			z"/>
		<path class="st11" d="M188.5,360.7c0,1.6,1.3,2.9,2.9,2.9v-5.9C189.8,357.8,188.5,359.1,188.5,360.7z"/>
		<path class="st11" d="M251.8,360.7c0,1.6-1.3,2.9-2.9,2.9v-5.9C250.4,357.8,251.8,359.1,251.8,360.7z"/>
	</g>
	<g>
		<path class="st4" d="M253.9,491.9c0-3.3-2.6-6.1-5.9-6.3v-4.2c0-15.8-12.8-28.7-28.7-28.7c-15.8,0-28.7,12.8-28.7,28.7v4.2
			c-3.3,0.3-5.9,3-5.9,6.3c0,3.4,2.7,6.2,6,6.4c1.4,14.6,13.6,26,28.6,26c14.9,0,27.2-11.4,28.6-26
			C251.2,498.1,253.9,495.3,253.9,491.9z"/>
		<path class="st5" d="M187.7,492c0,1.6,1.3,2.9,2.9,2.9v-5.9C189,489.1,187.7,490.4,187.7,492z"/>
		<path class="st5" d="M251,492c0,1.6-1.3,2.9-2.9,2.9v-5.9C249.7,489.1,251,490.4,251,492z"/>
	</g>
	<g>
		<path class="st4" d="M124.7,489.5c0-3.3-2.6-6.1-5.9-6.3V479c0-15.8-12.8-28.7-28.7-28.7c-15.8,0-28.7,12.8-28.7,28.7v4.2
			c-3.3,0.3-5.9,3-5.9,6.3c0,3.4,2.7,6.2,6,6.4c1.4,14.6,13.6,26,28.6,26c14.9,0,27.2-11.4,28.6-26
			C122,495.7,124.7,492.9,124.7,489.5z"/>
		<path class="st5" d="M58.5,489.6c0,1.6,1.3,2.9,2.9,2.9v-5.9C59.8,486.7,58.5,488,58.5,489.6z"/>
		<path class="st5" d="M121.8,489.6c0,1.6-1.3,2.9-2.9,2.9v-5.9C120.4,486.7,121.8,488,121.8,489.6z"/>
	</g>
	<g>
		<path class="st10" d="M124.2,360.4c0-3.3-2.6-6.1-5.9-6.3v-4.2c0-15.8-12.8-28.7-28.7-28.7C73.8,321.2,61,334,61,349.8v4.2
			c-3.3,0.3-5.9,3-5.9,6.3c0,3.4,2.7,6.2,6,6.4c1.4,14.6,13.6,26,28.6,26c14.9,0,27.2-11.4,28.6-26
			C121.6,366.6,124.2,363.8,124.2,360.4z"/>
		<path class="st5" d="M58,360.5c0,1.6,1.3,2.9,2.9,2.9v-5.9C59.4,357.5,58,358.9,58,360.5z"/>
		<path class="st5" d="M121.3,360.5c0,1.6-1.3,2.9-2.9,2.9v-5.9C120,357.5,121.3,358.9,121.3,360.5z"/>
	</g>
	<g>
		<path class="st10" d="M646.8,227c0-3.3-2.6-6.1-5.9-6.3v-4.2c0-15.8-12.8-28.7-28.7-28.7c-15.8,0-28.7,12.8-28.7,28.7v4.2
			c-3.3,0.3-5.9,3-5.9,6.3c0,3.4,2.7,6.2,6,6.4c1.4,14.6,13.6,26,28.6,26c14.9,0,27.2-11.4,28.6-26
			C644.1,233.1,646.8,230.4,646.8,227z"/>
		<path class="st5" d="M580.6,227.1c0,1.6,1.3,2.9,2.9,2.9v-5.9C581.9,224.1,580.6,225.5,580.6,227.1z"/>
		<path class="st5" d="M643.8,227.1c0,1.6-1.3,2.9-2.9,2.9v-5.9C642.5,224.1,643.8,225.5,643.8,227.1z"/>
	</g>
	<g>
		<path class="st4" d="M515,230.4c0-3.3-2.6-6.1-5.9-6.3v-4.2c0-15.8-12.8-28.7-28.7-28.7c-15.8,0-28.7,12.8-28.7,28.7v4.2
			c-3.3,0.3-5.9,3-5.9,6.3c0,3.4,2.7,6.2,6,6.4c1.4,14.6,13.6,26,28.6,26c14.9,0,27.2-11.4,28.6-26C512.3,236.5,515,233.7,515,230.4
			z"/>
		<path class="st5" d="M448.8,230.4c0,1.6,1.3,2.9,2.9,2.9v-5.9C450.2,227.5,448.8,228.8,448.8,230.4z"/>
		<path class="st5" d="M512.1,230.4c0,1.6-1.3,2.9-2.9,2.9v-5.9C510.8,227.5,512.1,228.8,512.1,230.4z"/>
	</g>
	<g>
		<path class="st4" d="M384.5,237.9c0-3.3-2.6-6.1-5.9-6.3v-4.2c0-15.8-12.8-28.7-28.7-28.7c-15.8,0-28.7,12.8-28.7,28.7v4.2
			c-3.3,0.3-5.9,3-5.9,6.3c0,3.4,2.7,6.2,6,6.4c1.4,14.6,13.6,26,28.6,26c14.9,0,27.2-11.4,28.6-26
			C381.8,244.1,384.5,241.3,384.5,237.9z"/>
		<path class="st5" d="M318.3,238c0,1.6,1.3,2.9,2.9,2.9v-5.9C319.6,235.1,318.3,236.4,318.3,238z"/>
		<path class="st5" d="M381.6,238c0,1.6-1.3,2.9-2.9,2.9v-5.9C380.2,235.1,381.6,236.4,381.6,238z"/>
	</g>
	<g>
		<path class="st4" d="M124.2,228.3c0-3.3-2.6-6.1-5.9-6.3v-4.2c0-15.8-12.8-28.7-28.7-28.7C73.9,189,61,201.9,61,217.7v4.2
			c-3.3,0.3-5.9,3-5.9,6.3c0,3.4,2.7,6.2,6,6.4c1.4,14.6,13.6,26,28.6,26c14.9,0,27.2-11.4,28.6-26
			C121.6,234.4,124.2,231.6,124.2,228.3z"/>
		<path class="st5" d="M58.1,228.3c0,1.6,1.3,2.9,2.9,2.9v-5.9C59.4,225.4,58.1,226.7,58.1,228.3z"/>
		<path class="st5" d="M121.3,228.3c0,1.6-1.3,2.9-2.9,2.9v-5.9C120,225.4,121.3,226.7,121.3,228.3z"/>
	</g>
	<g>
		<path class="st10" d="M254.7,232.4c0-3.3-2.6-6.1-5.9-6.3v-4.2c0-15.8-12.8-28.7-28.7-28.7c-15.8,0-28.7,12.8-28.7,28.7v4.2
			c-3.3,0.3-5.9,3-5.9,6.3c0,3.4,2.7,6.2,6,6.4c1.4,14.6,13.6,26,28.6,26c14.9,0,27.2-11.4,28.6-26
			C252,238.6,254.7,235.8,254.7,232.4z"/>
		<path class="st11" d="M188.5,232.5c0,1.6,1.3,2.9,2.9,2.9v-5.9C189.8,229.6,188.5,230.9,188.5,232.5z"/>
		<path class="st11" d="M251.8,232.5c0,1.6-1.3,2.9-2.9,2.9v-5.9C250.4,229.6,251.8,230.9,251.8,232.5z"/>
	</g>
	<path class="st5" d="M466.7,249.7c0-2.3,1.3-4.3,3.3-5.3v-0.7c-2.3,1-3.9,3.3-3.9,5.9c0,2.6,1.6,4.9,3.9,5.9V255
		C468,254,466.7,252,466.7,249.7z"/>
	<path class="st5" d="M465.5,244.2h-0.8c-0.9,1.1-1.5,2.6-1.5,4.2c0,0.7,0.1,1.5,0.4,2.1h0.6c-0.3-0.7-0.4-1.4-0.4-2.1
		C463.8,246.7,464.5,245.3,465.5,244.2z"/>
	<path class="st5" d="M495.2,249.7c0-2.3-1.3-4.3-3.3-5.3v-0.7c2.3,1,3.9,3.3,3.9,5.9c0,2.6-1.6,4.9-3.9,5.9V255
		C493.8,254,495.2,252,495.2,249.7z"/>
	<path class="st5" d="M496.3,244.2h0.8c0.9,1.1,1.5,2.6,1.5,4.2c0,0.7-0.1,1.5-0.4,2.1h-0.6c0.3-0.7,0.4-1.4,0.4-2.1
		C498.1,246.7,497.4,245.3,496.3,244.2z"/>
	<path class="st5" d="M476.5,218.9v-0.8c1.1-0.9,2.5-1.4,4-1.4c1.3,0,2.6,0.4,3.6,1.1v0.7c-1-0.8-2.2-1.3-3.6-1.3
		C479,217.4,477.6,218,476.5,218.9z"/>
	<path class="st5" d="M476.5,216.3v-0.8c1.1-0.9,2.5-1.4,4-1.4c1.3,0,2.6,0.4,3.6,1.1v0.7c-1-0.8-2.2-1.3-3.6-1.3
		C479,214.7,477.6,215.3,476.5,216.3z"/>
	<g>
		<g>
			<path class="st5" d="M515,360.3c0-3.3-2.6-6.1-5.9-6.3v-4.2c0-15.8-12.8-28.7-28.7-28.7c-15.8,0-28.7,12.8-28.7,28.7v4.2
				c-3.3,0.3-5.9,3-5.9,6.3c0,3.4,2.7,6.2,6,6.4c1.4,14.6,13.6,26,28.6,26c14.9,0,27.2-11.4,28.6-26
				C512.3,366.4,515,363.7,515,360.3z"/>
			<path class="st14" d="M448.8,360.4c0,1.6,1.3,2.9,2.9,2.9v-5.9C450.2,357.4,448.8,358.8,448.8,360.4z"/>
			<path class="st14" d="M512.1,360.4c0,1.6-1.3,2.9-2.9,2.9v-5.9C510.8,357.4,512.1,358.8,512.1,360.4z"/>
		</g>
		<polygon points="491,327.1 488.4,325.1 488,325.6 490.7,327.6 489.1,329.7 487.3,328.4 487,328.8 488.7,330.2 487,332.4 
			484.4,330.4 484,330.9 486.6,332.9 485,335 483.3,333.7 482.9,334.1 484.7,335.5 482.2,338.8 482.7,339.1 485.2,335.8 
			486.9,337.2 487.3,336.7 485.5,335.4 487.1,333.3 489.7,335.2 490.1,334.8 487.5,332.8 489.2,330.5 491,331.9 491.3,331.4 
			489.5,330 491.1,327.9 493.8,329.9 494.1,329.5 491.5,327.5 493.8,324.5 493.3,324.1 		"/>
	</g>
	<path class="st5" d="M58.2,97.5c0,1.6,1.3,2.9,2.9,2.9v-5.9C59.5,94.6,58.2,95.9,58.2,97.5z"/>
	<path class="st5" d="M118.5,94.6v5.9c1.6,0,2.9-1.3,2.9-2.9C121.5,95.9,120.1,94.6,118.5,94.6z"/>
	<path class="st4" d="M118.5,91.1v-4.2c0-15.8-12.8-28.7-28.7-28.7c-15.8,0-28.7,12.8-28.7,28.7v4.2c-3.3,0.3-5.9,3-5.9,6.3
		c0,3.4,2.7,6.2,6,6.4c1.1,12.2,10,22.2,21.6,25.1c2.2,0.6,4.6,0.9,7,0.9c2.7,0,5.4-0.4,7.9-1.1c11.1-3.2,19.5-13,20.6-24.9
		c3.3-0.2,6-3,6-6.4C124.4,94.1,121.8,91.4,118.5,91.1z M61.1,100.5c-1.6,0-2.9-1.3-2.9-2.9c0-1.6,1.3-2.9,2.9-2.9V100.5z
		 M118.5,100.5v-5.9c1.6,0,2.9,1.3,2.9,2.9C121.5,99.2,120.1,100.5,118.5,100.5z"/>
	<path class="st9" d="M93.6,129.5c0.2,0,0.3,0,0.5-0.1C93.9,129.5,93.7,129.5,93.6,129.5z"/>
	<path class="st9" d="M95.8,129.2c0.1,0,0.3-0.1,0.4-0.1C96,129.1,95.9,129.1,95.8,129.2z"/>
	<path class="st9" d="M91.7,129.7c0.2,0,0.3,0,0.5,0C92,129.7,91.8,129.7,91.7,129.7z"/>
	<path class="st9" d="M84.5,129.3c0,0,0.1,0,0.1,0C84.6,129.3,84.6,129.3,84.5,129.3z"/>
	<path class="st9" d="M86.1,129.5c0.1,0,0.3,0,0.4,0.1C86.4,129.6,86.2,129.6,86.1,129.5z"/>
	<path class="st9" d="M89.8,129.8C89.8,129.8,89.8,129.8,89.8,129.8C89.8,129.8,89.8,129.8,89.8,129.8L89.8,129.8z"/>
	<path class="st9" d="M87.7,129.7c0.2,0,0.3,0,0.5,0C88,129.7,87.9,129.7,87.7,129.7z"/>
	<path class="st5" d="M86.5,129.6c0.4,0,0.8,0.1,1.2,0.1C87.3,129.7,86.9,129.6,86.5,129.6z"/>
	<path class="st5" d="M82.9,128.9c0.5,0.1,1.1,0.3,1.6,0.4C84,129.2,83.4,129.1,82.9,128.9z"/>
	<path class="st5" d="M84.7,129.3c0.5,0.1,0.9,0.2,1.4,0.2C85.6,129.5,85.1,129.4,84.7,129.3z"/>
	<path class="st5" d="M91.7,129.7c-0.6,0-1.2,0.1-1.8,0.1c0,0,0,0,0,0C90.4,129.8,91.1,129.8,91.7,129.7z"/>
	<path class="st5" d="M94,129.5c0.6-0.1,1.2-0.2,1.7-0.3C95.2,129.3,94.6,129.4,94,129.5z"/>
	<path class="st5" d="M88.2,129.7c0.5,0,1.1,0.1,1.6,0.1C89.3,129.8,88.7,129.8,88.2,129.7z"/>
	<path class="st5" d="M96.1,129.1c0.4-0.1,0.9-0.2,1.3-0.3C97,128.9,96.6,129,96.1,129.1z"/>
	<path class="st5" d="M92.2,129.7c0.5,0,0.9-0.1,1.4-0.1C93.1,129.6,92.6,129.6,92.2,129.7z"/>
	<path class="st2" d="M82.8,259.8c1,10.3,3.8,17.6,7.1,17.6c3.3,0,6-7.4,7.1-17.7c-2.3,0.6-4.7,0.9-7.2,0.9
		C87.3,260.6,85,260.3,82.8,259.8z"/>
	<path class="st9" d="M628.8,392.9l-15.8,16l-15.8-16c-5.7,2.5-10.2,6.3-13,10.9c8.1,4.6,17.4,7.2,27.2,7.2
		c10.8,0,20.9-3.1,29.5-8.5C638.1,398.5,633.9,395.1,628.8,392.9z"/>
	<path class="st7" d="M489.5,524.9c-0.6-0.4-1.3-0.7-1.9-1c-2,0.4-4.1,0.7-6.3,0.7c-2.2,0-4.2-0.2-6.3-0.7c-0.7,0.3-1.3,0.6-1.9,1
		c2.4,1.1,5.2,1.8,8.2,1.8C484.3,526.7,487.1,526,489.5,524.9z"/>
</g>
<g id="eyes">
	<g>
		<path class="st0" d="M77.3,100.1c0,1.8-1.5,3.3-3.3,3.3l0,0c-1.8,0-3.3-1.5-3.3-3.3v-1.6c0-1.8,1.5-3.3,3.3-3.3l0,0
			c1.8,0,3.3,1.5,3.3,3.3V100.1z"/>
		<path class="st0" d="M110.1,100.1c0,1.8-1.5,3.3-3.3,3.3l0,0c-1.8,0-3.3-1.5-3.3-3.3v-1.6c0-1.8,1.5-3.3,3.3-3.3l0,0
			c1.8,0,3.3,1.5,3.3,3.3V100.1z"/>
	</g>
	<g>
		<path class="st0" d="M468,91.5c0,1.8-1.5,3.3-3.3,3.3l0,0c-1.8,0-3.3-1.5-3.3-3.3v-1.6c0-1.8,1.5-3.3,3.3-3.3l0,0
			c1.8,0,3.3,1.5,3.3,3.3V91.5z"/>
		<path class="st0" d="M500.8,91.5c0,1.8-1.5,3.3-3.3,3.3l0,0c-1.8,0-3.3-1.5-3.3-3.3v-1.6c0-1.8,1.5-3.3,3.3-3.3l0,0
			c1.8,0,3.3,1.5,3.3,3.3V91.5z"/>
	</g>
	<g>
		<path class="st0" d="M207.6,234.6c0,1.8-1.5,3.3-3.3,3.3l0,0c-1.8,0-3.3-1.5-3.3-3.3v-1.6c0-1.8,1.5-3.3,3.3-3.3l0,0
			c1.8,0,3.3,1.5,3.3,3.3V234.6z"/>
		<path class="st0" d="M240.4,234.6c0,1.8-1.5,3.3-3.3,3.3l0,0c-1.8,0-3.3-1.5-3.3-3.3v-1.6c0-1.8,1.5-3.3,3.3-3.3l0,0
			c1.8,0,3.3,1.5,3.3,3.3V234.6z"/>
	</g>
	<g>
		<path class="st0" d="M337.4,102.7c0,1.8-1.5,3.3-3.3,3.3l0,0c-1.8,0-3.3-1.5-3.3-3.3v-1.6c0-1.8,1.5-3.3,3.3-3.3l0,0
			c1.8,0,3.3,1.5,3.3,3.3V102.7z"/>
		<path class="st0" d="M370.2,102.7c0,1.8-1.5,3.3-3.3,3.3l0,0c-1.8,0-3.3-1.5-3.3-3.3v-1.6c0-1.8,1.5-3.3,3.3-3.3l0,0
			c1.8,0,3.3,1.5,3.3,3.3V102.7z"/>
		<path class="st11" d="M334.2,97.8c-1.2,0-2.3,0.7-2.9,1.7h5.7C336.5,98.5,335.4,97.8,334.2,97.8z"/>
		<path class="st11" d="M367,97.8c-1.2,0-2.3,0.7-2.9,1.7h5.7C369.3,98.5,368.2,97.8,367,97.8z"/>
	</g>
	<g>
		<path class="st0" d="M598.7,101.3c0,1.8-1.5,3.3-3.3,3.3l0,0c-1.8,0-3.3-1.5-3.3-3.3v-1.6c0-1.8,1.5-3.3,3.3-3.3l0,0
			c1.8,0,3.3,1.5,3.3,3.3V101.3z"/>
		<path class="st0" d="M631.5,101.3c0,1.8-1.5,3.3-3.3,3.3l0,0c-1.8,0-3.3-1.5-3.3-3.3v-1.6c0-1.8,1.5-3.3,3.3-3.3l0,0
			c1.8,0,3.3,1.5,3.3,3.3V101.3z"/>
	</g>
	<g>
		<path class="st0" d="M337.4,240.6c0,1.8-1.5,3.3-3.3,3.3l0,0c-1.8,0-3.3-1.5-3.3-3.3V239c0-1.8,1.5-3.3,3.3-3.3l0,0
			c1.8,0,3.3,1.5,3.3,3.3V240.6z"/>
		<path class="st0" d="M370.2,240.6c0,1.8-1.5,3.3-3.3,3.3l0,0c-1.8,0-3.3-1.5-3.3-3.3V239c0-1.8,1.5-3.3,3.3-3.3l0,0
			c1.8,0,3.3,1.5,3.3,3.3V240.6z"/>
	</g>
	<path class="st0" d="M599.4,229.7c0,1.8-1.5,3.3-3.3,3.3l0,0c-1.8,0-3.3-1.5-3.3-3.3v-1.6c0-1.8,1.5-3.3,3.3-3.3l0,0
		c1.8,0,3.3,1.5,3.3,3.3V229.7z"/>
	<path class="st0" d="M626.4,229.7c0,1.8,1.5,3.3,3.3,3.3l0,0c1.8,0,3.3-1.5,3.3-3.3v-1.6c0-1.8-1.5-3.3-3.3-3.3l0,0
		c-1.8,0-3.3,1.5-3.3,3.3V229.7z"/>
	<g>
		<path class="st0" d="M599.2,367.7c0,1.8-1.5,3.3-3.3,3.3l0,0c-1.8,0-3.3-1.5-3.3-3.3v-1.6c0-1.8,1.5-3.3,3.3-3.3l0,0
			c1.8,0,3.3,1.5,3.3,3.3V367.7z"/>
		<path class="st0" d="M633.2,367.7c0,1.8-1.5,3.3-3.3,3.3l0,0c-1.8,0-3.3-1.5-3.3-3.3v-1.6c0-1.8,1.5-3.3,3.3-3.3l0,0
			c1.8,0,3.3,1.5,3.3,3.3V367.7z"/>
	</g>
	<g>
		<path class="st0" d="M207.2,98.5c0,1.8-1.5,3.3-3.3,3.3l0,0c-1.8,0-3.3-1.5-3.3-3.3v-1.6c0-1.8,1.5-3.3,3.3-3.3l0,0
			c1.8,0,3.3,1.5,3.3,3.3V98.5z"/>
		<path class="st0" d="M241.2,98.5c0,1.8-1.5,3.3-3.3,3.3l0,0c-1.8,0-3.3-1.5-3.3-3.3v-1.6c0-1.8,1.5-3.3,3.3-3.3l0,0
			c1.8,0,3.3,1.5,3.3,3.3V98.5z"/>
	</g>
	<g>
		<path class="st0" d="M77.2,363c0,1.8-1.5,3.3-3.3,3.3l0,0c-1.8,0-3.3-1.5-3.3-3.3v-1.6c0-1.8,1.5-3.3,3.3-3.3l0,0
			c1.8,0,3.3,1.5,3.3,3.3V363z"/>
		<path class="st0" d="M110,363c0,1.8-1.5,3.3-3.3,3.3l0,0c-1.8,0-3.3-1.5-3.3-3.3v-1.6c0-1.8,1.5-3.3,3.3-3.3l0,0
			c1.8,0,3.3,1.5,3.3,3.3V363z"/>
		<path class="st5" d="M74,367.9c1.9,0,3.6-1.4,3.9-3.3h-7.8C70.4,366.4,72.1,367.9,74,367.9z"/>
		<path class="st5" d="M106.7,367.9c1.9,0,3.6-1.4,3.9-3.3h-7.7C103.2,366.4,104.8,367.9,106.7,367.9z"/>
	</g>
	<g>
		<path class="st0" d="M208.8,363.3c0,1.8-1.5,3.3-3.3,3.3l0,0c-1.8,0-3.3-1.5-3.3-3.3v-1.6c0-1.8,1.5-3.3,3.3-3.3l0,0
			c1.8,0,3.3,1.5,3.3,3.3V363.3z"/>
		<path class="st0" d="M238.1,363.3c0,1.8-1.5,3.3-3.3,3.3l0,0c-1.8,0-3.3-1.5-3.3-3.3v-1.6c0-1.8,1.5-3.3,3.3-3.3l0,0
			c1.8,0,3.3,1.5,3.3,3.3V363.3z"/>
	</g>
	<g>
		<path class="st0" d="M338,360.5c0,1.8-1.5,3.3-3.3,3.3l0,0c-1.8,0-3.3-1.5-3.3-3.3v-1.6c0-1.8,1.5-3.3,3.3-3.3l0,0
			c1.8,0,3.3,1.5,3.3,3.3V360.5z"/>
		<path class="st0" d="M371.5,360.5c0,1.8-1.5,3.3-3.3,3.3l0,0c-1.8,0-3.3-1.5-3.3-3.3v-1.6c0-1.8,1.5-3.3,3.3-3.3l0,0
			c1.8,0,3.3,1.5,3.3,3.3V360.5z"/>
	</g>
	<g>
		<path class="st0" d="M338.1,502.6c0,1.8-1.5,3.3-3.3,3.3l0,0c-1.8,0-3.3-1.5-3.3-3.3V501c0-1.8,1.5-3.3,3.3-3.3l0,0
			c1.8,0,3.3,1.5,3.3,3.3V502.6z"/>
		<path class="st0" d="M371,502.6c0,1.8-1.5,3.3-3.3,3.3l0,0c-1.8,0-3.3-1.5-3.3-3.3V501c0-1.8,1.5-3.3,3.3-3.3l0,0
			c1.8,0,3.3,1.5,3.3,3.3V502.6z"/>
	</g>
	<g>
		<path class="st0" d="M467.9,363c0,1.8-1.5,3.3-3.3,3.3l0,0c-1.8,0-3.3-1.5-3.3-3.3v-1.6c0-1.8,1.5-3.3,3.3-3.3l0,0
			c1.8,0,3.3,1.5,3.3,3.3V363z"/>
		<path class="st0" d="M500.8,363c0,1.8-1.5,3.3-3.3,3.3l0,0c-1.8,0-3.3-1.5-3.3-3.3v-1.6c0-1.8,1.5-3.3,3.3-3.3l0,0
			c1.8,0,3.3,1.5,3.3,3.3V363z"/>
	</g>
	<g>
		<path class="st0" d="M83.5,492.3c0,1.8-1.5,3.3-3.3,3.3l0,0c-1.8,0-3.3-1.5-3.3-3.3v-1.6c0-1.8,1.5-3.3,3.3-3.3l0,0
			c1.8,0,3.3,1.5,3.3,3.3V492.3z"/>
		<path class="st0" d="M103.3,492.3c0,1.8-1.5,3.3-3.3,3.3l0,0c-1.8,0-3.3-1.5-3.3-3.3v-1.6c0-1.8,1.5-3.3,3.3-3.3l0,0
			c1.8,0,3.3,1.5,3.3,3.3V492.3z"/>
	</g>
	<g>
		<path class="st0" d="M206.8,494.6c0,1.8-1.5,3.3-3.3,3.3l0,0c-1.8,0-3.3-1.5-3.3-3.3V493c0-1.8,1.5-3.3,3.3-3.3l0,0
			c1.8,0,3.3,1.5,3.3,3.3V494.6z"/>
		<path class="st0" d="M239.7,494.6c0,1.8-1.5,3.3-3.3,3.3l0,0c-1.8,0-3.3-1.5-3.3-3.3V493c0-1.8,1.5-3.3,3.3-3.3l0,0
			c1.8,0,3.3,1.5,3.3,3.3V494.6z"/>
	</g>
	<g>
		<path class="st0" d="M77.3,230.9c0,1.8-1.5,3.3-3.3,3.3l0,0c-1.8,0-3.3-1.5-3.3-3.3v-1.6c0-1.8,1.5-3.3,3.3-3.3l0,0
			c1.8,0,3.3,1.5,3.3,3.3V230.9z"/>
		<path class="st0" d="M110.1,230.9c0,1.8-1.5,3.3-3.3,3.3l0,0c-1.8,0-3.3-1.5-3.3-3.3v-1.6c0-1.8,1.5-3.3,3.3-3.3l0,0
			c1.8,0,3.3,1.5,3.3,3.3V230.9z"/>
	</g>
	<g>
		<path class="st0" d="M468.8,494.9c0,1.8-1.5,3.3-3.3,3.3l0,0c-1.8,0-3.3-1.5-3.3-3.3v-1.6c0-1.8,1.5-3.3,3.3-3.3l0,0
			c1.8,0,3.3,1.5,3.3,3.3V494.9z"/>
		<path class="st0" d="M501.6,494.9c0,1.8-1.5,3.3-3.3,3.3l0,0c-1.8,0-3.3-1.5-3.3-3.3v-1.6c0-1.8,1.5-3.3,3.3-3.3l0,0
			c1.8,0,3.3,1.5,3.3,3.3V494.9z"/>
	</g>
	<g>
		<path class="st0" d="M598.8,492.8c0,1.8-1.5,3.3-3.3,3.3l0,0c-1.8,0-3.3-1.5-3.3-3.3v-1.6c0-1.8,1.5-3.3,3.3-3.3l0,0
			c1.8,0,3.3,1.5,3.3,3.3V492.8z"/>
		<path class="st0" d="M631.6,492.8c0,1.8-1.5,3.3-3.3,3.3l0,0c-1.8,0-3.3-1.5-3.3-3.3v-1.6c0-1.8,1.5-3.3,3.3-3.3l0,0
			c1.8,0,3.3,1.5,3.3,3.3V492.8z"/>
	</g>
	<g>
		<path class="st0" d="M473.9,233.1c0,1.8-1.5,3.3-3.3,3.3l0,0c-1.8,0-3.3-1.5-3.3-3.3v-1.6c0-1.8,1.5-3.3,3.3-3.3l0,0
			c1.8,0,3.3,1.5,3.3,3.3V233.1z"/>
		<path class="st0" d="M493.7,233.1c0,1.8-1.5,3.3-3.3,3.3l0,0c-1.8,0-3.3-1.5-3.3-3.3v-1.6c0-1.8,1.5-3.3,3.3-3.3l0,0
			c1.8,0,3.3,1.5,3.3,3.3V233.1z"/>
	</g>
</g>
<g id="popils">
	<g>
		<circle cx="74.2" cy="99.2" r="1.8"/>
		<circle cx="106.9" cy="99.3" r="1.8"/>
	</g>
	<g>
		<circle cx="464.8" cy="90.6" r="1.8"/>
		<circle cx="497.5" cy="90.7" r="1.8"/>
	</g>
	<g>
		<circle class="st7" cx="204.5" cy="233.7" r="1.8"/>
		<circle class="st7" cx="237.2" cy="233.8" r="1.8"/>
	</g>
	<g>
		<circle class="st7" cx="334.3" cy="101.9" r="1.8"/>
		<circle class="st7" cx="367" cy="101.9" r="1.8"/>
	</g>
	<g>
		<circle class="st15" cx="595.5" cy="100.4" r="1.8"/>
		<circle class="st15" cx="628.3" cy="100.5" r="1.8"/>
	</g>
	<g>
		<circle cx="334.3" cy="239.7" r="1.8"/>
		<circle cx="367" cy="239.8" r="1.8"/>
	</g>
	<circle cx="596.2" cy="228.8" r="1.8"/>
	<circle cx="629.6" cy="228.8" r="1.8"/>
	<g>
		<circle class="st13" cx="596.1" cy="366.9" r="1.8"/>
		<circle class="st13" cx="630" cy="366.9" r="1.8"/>
	</g>
	<g>
		<circle class="st7" cx="204" cy="97.6" r="1.8"/>
		<circle class="st7" cx="237.9" cy="97.7" r="1.8"/>
	</g>
	<g>
		<circle cx="74" cy="362.1" r="1.8"/>
		<circle cx="106.7" cy="362.2" r="1.8"/>
	</g>
	<g>
		<circle cx="205.6" cy="362.4" r="1.8"/>
		<circle cx="234.8" cy="362.5" r="1.8"/>
	</g>
	<g>
		<circle class="st7" cx="334.9" cy="359.6" r="1.8"/>
		<circle class="st7" cx="368.2" cy="359.7" r="1.8"/>
	</g>
	<g>
		<circle cx="335" cy="501.7" r="1.8"/>
		<circle cx="367.7" cy="501.8" r="1.8"/>
	</g>
	<g>
		<circle cx="464.8" cy="362.1" r="1.8"/>
		<circle cx="497.5" cy="362.2" r="1.8"/>
	</g>
	<g>
		<circle class="st7" cx="80.4" cy="491.4" r="1.8"/>
		<circle class="st7" cx="100.1" cy="491.5" r="1.8"/>
	</g>
	<g>
		<circle cx="203.7" cy="493.7" r="1.8"/>
		<circle cx="236.4" cy="493.8" r="1.8"/>
	</g>
	<g>
		<circle cx="74.2" cy="230" r="1.8"/>
		<circle cx="106.9" cy="230.1" r="1.8"/>
	</g>
	<g>
		<circle class="st14" cx="465.6" cy="494" r="1.8"/>
		<circle class="st14" cx="498.3" cy="494.1" r="1.8"/>
	</g>
	<g>
		<circle cx="595.6" cy="491.9" r="1.8"/>
		<circle cx="628.3" cy="492" r="1.8"/>
	</g>
	<g>
		<circle class="st7" cx="470.7" cy="232.2" r="1.8"/>
		<circle class="st7" cx="490.4" cy="232.3" r="1.8"/>
	</g>
</g>
<g id="beard">
	<path d="M501.2,100.8l-3.9-3.9l-3.9,3.9l-2.7-2.7l-3.7,3.7l-2.6,2.6l0,0l0,0l-2.6-2.6l-1.3-1.3l-3.9,3.9l0,0l0,0l-6.3-6.3l-2.7,2.7
		l-3.9-3.9l-3.9,3.9l-6.2-6.2c-1.2,3.1-1.8,6.5-1.8,10v14.2c0,15.8,12.8,28.7,28.7,28.7c15.8,0,28.7-12.8,28.7-28.7v-14.2
		c0-3.5-0.6-6.9-1.8-10L501.2,100.8z"/>
	<path class="st3" d="M89.7,392.7c12.7,0,23.5-8.3,27.3-19.8H62.4C66.1,384.4,76.9,392.7,89.7,392.7z"/>
	<path d="M220.1,389.2c-1.6,0-3.1-0.6-4.4-1.5l-2.8,10.6l7.2,7.2l7.2-7.2l-2.8-10.6C223.3,388.6,221.8,389.2,220.1,389.2z"/>
	<path d="M480.5,375.4c-7.7,0-14.2,5.1-16.4,12c4.7,3.2,10.3,5.2,16.4,5.2c6.1,0,11.8-1.9,16.4-5.2
		C494.7,380.5,488.1,375.4,480.5,375.4z"/>
	<path class="st3" d="M192.2,99.6c0,0.7,0,1.5,0,2.1v2.2c0,3.6,1.8,10.3,1.8,10.3c1.2,3.3,3.1,6.3,5.3,8.9c1,1.1,2.1,2.2,3.3,3.2
		c5,4.1,11.3,6.6,18.3,6.6c6.9,0,13.3-2.5,18.3-6.6c1.2-1,2.2-2,3.2-3.1c2.3-2.6,4.1-5.6,5.4-8.9c0,0,1.8-6.7,1.8-10.3v-1.3
		c0.1-1,0-2.2,0-3.2v-0.6v-4.6v-1.3l-3,0.1v1.2V95l-3.3,14.8l-1.7-1.7l-3.9,3.9l-3.9-3.9l-2.7,2.7l-3.7-3.7l-2.6-2.6l-2.6,2.6
		l-1.3,1.3l-3.9-3.9l-6.3,6.3L208,108l-3.9,3.9l-3.9-3.9l-2,2l-3.5-15.5l0,0l0-0.3l0-0.9l-2.5-0.1l0,1V99V99.6z"/>
</g>
<g id="mouth">
	<path class="st5" d="M90.5,120.3c3.2,0,5.9-2.6,5.9-5.9H84.6C84.6,117.6,87.3,120.3,90.5,120.3z"/>
	<path class="st0" d="M480.5,116.2c3.2,0,5.9-2.6,5.9-5.9h-11.8C474.6,113.5,477.3,116.2,480.5,116.2z"/>
	<path class="st9" d="M220.9,256.7c3.2,0,5.9-2.6,5.9-5.9H215C215,254.1,217.6,256.7,220.9,256.7z"/>
	<path class="st11" d="M349.9,124.6c3.2,0,5.9-2.6,5.9-5.9h-11.8C344.1,122,346.7,124.6,349.9,124.6z"/>
	<path class="st11" d="M611.2,123.2c3.2,0,5.9-2.6,5.9-5.9h-11.8C605.3,120.6,608,123.2,611.2,123.2z"/>
	<path class="st9" d="M350.6,260.8c3.2,0,5.9-2.6,5.9-5.9h-11.8C344.7,258.1,347.4,260.8,350.6,260.8z"/>
	<path class="st11" d="M612.9,243.9c3.2,0,5.9,2.6,5.9,5.9H607C607,246.6,609.7,243.9,612.9,243.9z"/>
	<path class="st11" d="M612.9,389.6c3.2,0,5.9-2.6,5.9-5.9H607C607,387,609.7,389.6,612.9,389.6z"/>
	<path class="st4" d="M220.9,120.6c3.2,0,5.9-2.6,5.9-5.9H215C215,117.9,217.6,120.6,220.9,120.6z"/>
	<path class="st0" d="M90.4,377.2c3.2,0,5.9,2.6,5.9,5.9H84.5C84.5,379.9,87.1,377.2,90.4,377.2z"/>
	<path class="st11" d="M220.1,383.5c3.2,0,5.9-2.6,5.9-5.9h-11.8C214.2,380.8,216.9,383.5,220.1,383.5z"/>
	<path class="st5" d="M351.1,382.3c3.2,0,5.9-2.6,5.9-5.9h-11.8C345.3,379.6,347.9,382.3,351.1,382.3z"/>
	<path class="st9" d="M350.7,524.5c3.2,0,5.9-2.6,5.9-5.9h-11.8C344.8,521.8,347.4,524.5,350.7,524.5z"/>
	<path class="st11" d="M90.8,512.4c3.2,0,5.9-2.6,5.9-5.9H84.9C84.9,509.8,87.6,512.4,90.8,512.4z"/>
	<path class="st9" d="M220,514.7c3.2,0,5.9-2.6,5.9-5.9h-11.8C214.2,512.1,216.8,514.7,220,514.7z"/>
	<path class="st11" d="M90.5,251c3.2,0,5.9-2.6,5.9-5.9H84.6C84.6,248.4,87.3,251,90.5,251z"/>
	<path class="st11" d="M482,515c3.2,0,5.9-2.6,5.9-5.9h-11.8C476.1,512.4,478.7,515,482,515z"/>
	<path class="st11" d="M612,512.9c3.2,0,5.9-2.6,5.9-5.9h-11.8C606.1,510.3,608.7,512.9,612,512.9z"/>
	<path class="st11" d="M481.2,253.2c3.2,0,5.9-2.6,5.9-5.9h-11.8C475.3,250.6,477.9,253.2,481.2,253.2z"/>
	<path class="st0" d="M480.8,379.9c3.2,0,5.9,2.6,5.9,5.9h-11.8C474.9,382.5,477.5,379.9,480.8,379.9z"/>
</g>
<g id="mustache">
	<g>
		<path class="st0" d="M610.6,114l-2.9-2.5l0,0l0,0l-4.3,4.3l-1.8-1.8l-2.7,2.7l-2.7-2.7l-1.4,1.4l-0.3-1.4c-1,1.4-1.8,2.9-2.4,4.5
			h18.5V114z"/>
		<path class="st0" d="M627.6,113.7l-0.3,1.5l-1.2-1.2l-2.7,2.7l-2.7-2.7l-1.8,1.8l-2.5-2.5l-1.8-1.8l0,0l0,0l-1.8,1.8l-0.7,0.7v4.4
			h18.1C629.6,116.7,628.7,115.1,627.6,113.7z"/>
	</g>
	<g>
		<path class="st16" d="M350,377.2v-6.1c-6.8,0-12.3,5.5-12.3,12.3h3.3C342.3,379.8,345.8,377.2,350,377.2z"/>
		<path class="st16" d="M352.3,377.2c4.1,0,7.6,2.6,9,6.2h3.3c0-6.8-5.5-12.3-12.3-12.3l0,0V377.2L352.3,377.2z"/>
	</g>
</g>
<g id="eyebrows">
	<g>
		<path d="M74,91.6c2.1,0,3.9,1.1,4.9,2.6h0.7C78.5,92.3,76.4,91,74,91c-2.4,0-4.5,1.3-5.6,3.2h0.7C70.1,92.7,71.9,91.6,74,91.6z"/>
		<path d="M106.8,91c2.3,0,4.3,1.3,5.3,3.3h0.7c-1-2.3-3.3-3.9-5.9-3.9c-2.6,0-4.9,1.6-5.9,3.9h0.7C102.5,92.3,104.5,91,106.8,91z"
			/>
	</g>
	<g>
		<path d="M472.3,81.4l-0.2,0.2l-2.7-2.7l0,0l0,0l-4.3,4.3l-1.8-1.8l-2.7,2.7l-2.7-2.7l-1.4,1.4l-0.3-1.4c-1,1.4-1.8,2.9-2.4,4.5
			h18.5V81.4z"/>
		<path d="M504,81l-0.3,1.5l-1.2-1.2l-2.7,2.7l-2.7-2.7l-1.8,1.8l-2.5-2.5l-1.8-1.8l0,0l0,0l-1.8,1.8l-0.7,0.7v4.4h18.1
			C505.9,84.1,505,82.5,504,81z"/>
	</g>
	<g>
		<path class="st5" d="M204.5,225.4c2.9,0,5.4,1.1,6.9,2.6h1c-1.6-1.9-4.5-3.2-7.9-3.2c-3.4,0-6.3,1.3-7.9,3.2h1
			C199,226.5,201.6,225.4,204.5,225.4z"/>
		<path class="st5" d="M236.3,225.7c3.2,0,6,1.3,7.4,3.3h0.9c-1.4-2.3-4.6-3.9-8.3-3.9c-3.7,0-6.9,1.6-8.3,3.9h0.9
			C230.3,227,233.1,225.7,236.3,225.7z"/>
	</g>
	<g>
		<path class="st0" d="M637.5,90l-0.2,0.2l-2.7-2.7l0,0l0,0l-4.3,4.3l-1.8-1.8l-2.7,2.7l-2.7-2.7l-1.4,1.4l-0.3-1.4
			c-1,1.4-1.8,2.9-2.4,4.5h18.5V90z"/>
		<path class="st0" d="M600.1,89.7l-0.3,1.5l-1.2-1.2l-2.7,2.7l-2.7-2.7l-1.8,1.8l-2.5-2.5l-1.8-1.8l0,0l0,0l-1.8,1.8l-0.7,0.7v4.4
			h18.1C602.1,92.7,601.2,91.1,600.1,89.7z"/>
	</g>
	<g>
		<path d="M334.1,232.1c2.1,0,3.9,1.1,4.9,2.6h0.7c-1.1-1.9-3.2-3.2-5.6-3.2c-2.4,0-4.5,1.3-5.6,3.2h0.7
			C330.3,233.1,332.1,232.1,334.1,232.1z"/>
		<path d="M366.9,231.5c2.3,0,4.3,1.3,5.3,3.3h0.7c-1-2.3-3.3-3.9-5.9-3.9c-2.6,0-4.9,1.6-5.9,3.9h0.7
			C362.6,232.8,364.6,231.5,366.9,231.5z"/>
	</g>
	<path d="M596.2,223.7c3.8,0,7.1,1.1,9.1,2.7h1.3c-2.1-1.9-5.9-3.2-10.4-3.2c-4.4,0-8.3,1.3-10.4,3.2h1.3
		C589.1,224.7,592.5,223.7,596.2,223.7z"/>
	<path d="M629.6,223.7c-3.8,0-7.1,1.1-9.1,2.7h-1.3c2.1-1.9,5.9-3.2,10.4-3.2c4.4,0,8.3,1.3,10.4,3.2h-1.3
		C636.7,224.7,633.4,223.7,629.6,223.7z"/>
	<g>
		<polygon class="st16" points="603.5,355.3 592.2,360.5 591,355.6 602.9,352.9 		"/>
		<polygon class="st16" points="623.4,361.6 635.5,364.1 635.5,359.1 623.4,359.1 		"/>
	</g>
	<g>
		<polygon class="st3" points="199.4,92.1 217.4,90.8 217.4,93.3 199.4,93.3 		"/>
		<polygon class="st3" points="241.2,93 223.2,91.8 223.2,94.3 241.2,94.3 		"/>
	</g>
	<g>
		<polygon class="st3" points="80.9,356 79.4,357.5 77.3,355.4 75.8,353.9 74.3,355.4 73.6,356.2 71.3,353.9 67.7,357.5 66.2,356 
			65.2,357 65.2,359.7 82.6,359.7 82.6,357.7 		"/>
		<polygon class="st3" points="113.8,355.8 112.3,357.3 110.1,355.2 108.6,353.7 107.2,355.2 106.4,356 104.1,353.7 100.5,357.3 
			99,355.8 98,356.8 98,359.5 115.4,359.5 115.4,357.5 		"/>
	</g>
	<g>
		<polygon points="201.8,362.4 201.8,362.4 205.7,358.4 207,359.8 209.6,362.4 209.6,362.4 209.6,362.4 212.2,359.8 213,359 
			205.6,351.6 198.3,358.9 201.8,362.4 		"/>
		<polygon points="230.9,362.1 230.9,362.1 234.8,358.2 236.2,359.6 238.8,362.1 238.8,362.1 238.8,362.1 241.4,359.6 242.1,358.8 
			234.8,351.4 227.5,358.7 230.9,362.1 		"/>
	</g>
	<g>
		<path class="st14" d="M334.3,354.9c2,0,3.9,1.1,4.9,2.6h0.7c-1.1-1.9-3.2-3.2-5.6-3.2c-2.4,0-4.5,1.3-5.6,3.2h0.7
			C330.5,356,332.3,354.9,334.3,354.9z"/>
		<path class="st14" d="M368.4,354.9c2.3,0,4.3,1.3,5.3,3.3h0.7c-1-2.3-3.3-3.9-5.9-3.9c-2.6,0-4.9,1.6-5.9,3.9h0.7
			C364.1,356.2,366,354.9,368.4,354.9z"/>
	</g>
	<g>
		<path d="M335,495.4c2.8,0,5.3,1.1,6.8,2.6h1c-1.6-1.9-4.4-3.2-7.7-3.2c-3.3,0-6.2,1.3-7.7,3.2h1
			C329.7,496.5,332.2,495.4,335,495.4z"/>
		<path d="M366.5,495.1c3.2,0,5.9,1.3,7.3,3.3h0.9c-1.4-2.3-4.5-3.9-8.2-3.9c-3.6,0-6.8,1.6-8.2,3.9h0.9
			C360.6,496.5,363.4,495.1,366.5,495.1z"/>
	</g>
	<g>
		<polygon points="472.7,357.6 471.1,359.2 469,357 467.5,355.6 466,357 465.3,357.8 463,355.6 459.4,359.2 457.9,357.6 
			456.9,358.6 456.9,361.4 474.3,361.4 474.3,359.3 		"/>
		<polygon points="489.2,357.6 490.7,359.2 492.8,357 494.3,355.6 495.8,357 496.6,357.8 498.8,355.6 502.4,359.2 504,357.6 
			505,358.6 505,361.4 487.5,361.4 487.5,359.3 		"/>
	</g>
	<g>
		<path d="M79.6,483.8c2.1,0,3.9,1.1,4.9,2.6h0.7c-1.1-1.9-3.2-3.2-5.6-3.2c-2.4,0-4.5,1.3-5.6,3.2h0.7
			C75.8,484.8,77.6,483.8,79.6,483.8z"/>
		<path d="M100.6,483.1c2.3,0,4.3,1.3,5.3,3.3h0.7c-1-2.3-3.3-3.9-5.9-3.9c-2.6,0-4.9,1.6-5.9,3.9h0.7
			C96.3,484.5,98.3,483.1,100.6,483.1z"/>
	</g>
	<g>
		<path class="st14" d="M203.5,486.1c2.1,0,3.9,1.1,4.9,2.7h0.7c-1.1-1.9-3.2-3.2-5.6-3.2c-2.4,0-4.5,1.3-5.6,3.2h0.7
			C199.7,487.1,201.5,486.1,203.5,486.1z"/>
		<path class="st14" d="M236.3,485.5c2.3,0,4.3,1.3,5.3,3.3h0.7c-1-2.3-3.3-3.9-5.9-3.9c-2.6,0-4.9,1.6-5.9,3.9h0.7
			C232.1,486.8,234,485.5,236.3,485.5z"/>
	</g>
	<g>
		<polygon class="st14" points="78.9,224 70.8,224.8 70.8,223.3 78.9,223.3 		"/>
		<polygon class="st14" points="102,224 110.1,224.8 110.1,223.3 102,223.3 		"/>
	</g>
	<g>
		<polygon class="st6" points="470.3,488 462.2,488.8 462.2,487.3 470.3,487.3 		"/>
		<polygon class="st6" points="493.5,488 501.6,488.8 501.6,487.3 493.5,487.3 		"/>
	</g>
	<g>
		<polygon points="599.6,481 591.5,481.7 591.5,480.2 599.6,480.2 		"/>
		<polygon points="622.5,480.2 630.6,481 630.6,479.5 622.5,479.5 		"/>
	</g>
	<g>
		<path class="st15" d="M470,224.6c2.1,0,3.9,1.1,4.9,2.6h0.7c-1.1-1.9-3.2-3.2-5.6-3.2c-2.4,0-4.5,1.3-5.6,3.2h0.7
			C466.1,225.6,467.9,224.6,470,224.6z"/>
		<path class="st15" d="M491,223.9c2.3,0,4.3,1.3,5.3,3.3h0.7c-1-2.3-3.3-3.9-5.9-3.9c-2.6,0-4.9,1.6-5.9,3.9h0.7
			C486.7,225.3,488.7,223.9,491,223.9z"/>
	</g>
</g>
<g id="glasses">
	<path class="st9" d="M357.2,93.9v2h-14.4v-2h-22.7v2.8v8.6v2.8h22.7v-2.8v-7.1h14.4v7.1v2.8h22.7v-2.8v-8.6v-2.8H357.2z
		 M340.5,96.8v8.6v0.5h-18.2v-0.5v-8.6v-0.5h18.2V96.8z M377.6,96.7v8.6v0.5h-18.2v-0.5v-8.6v-0.5h18.2V96.7z"/>
	<path d="M381.6,351.4l-0.9-0.8l-4.7,5.5c-1.3-2.8-4.2-4.7-7.4-4.7c-3.8,0-7,2.6-8,6.1H342c-0.9-3.5-4.1-6.1-8-6.1
		c-3.4,0-6.3,2-7.6,5l-4.8-5.5l-0.9,0.8l5.2,6l0.1-0.1c-0.2,0.7-0.3,1.4-0.3,2.1c0,4.6,3.7,8.3,8.3,8.3c4.6,0,8.3-3.7,8.3-8.3
		c0-0.3,0-0.6,0-0.9h18c0,0.3,0,0.6,0,0.9c0,4.6,3.7,8.3,8.3,8.3c4.6,0,8.3-3.7,8.3-8.3c0-0.8-0.1-1.6-0.3-2.3L381.6,351.4z
		 M334,366.2c-3.6,0-6.6-3-6.6-6.6s3-6.6,6.6-6.6c3.6,0,6.6,3,6.6,6.6S337.7,366.2,334,366.2z M368.5,366.2c-3.6,0-6.6-3-6.6-6.6
		s3-6.6,6.6-6.6c3.7,0,6.6,3,6.6,6.6S372.1,366.2,368.5,366.2z"/>
	<path d="M505.8,226.6l-0.9-0.8l-4.7,5.5c-1.3-2.8-4.2-4.7-7.4-4.7c-3.8,0-7,2.6-8,6.1h-1.1h-7.9c-0.9-3.5-4.1-6.1-8-6.1
		c-3.4,0-6.3,2-7.6,5l-4.8-5.5l-0.9,0.8l5.2,6l0.1-0.1c-0.2,0.7-0.3,1.4-0.3,2.1c0,4.6,3.7,8.3,8.3,8.3c4.6,0,8.3-3.7,8.3-8.3
		c0-0.3,0-0.6,0-0.9h7.7h0.9c0,0.3,0,0.6,0,0.9c0,4.6,3.7,8.3,8.3,8.3c4.6,0,8.3-3.7,8.3-8.3c0-0.8-0.1-1.6-0.3-2.3L505.8,226.6z
		 M474.3,234.9c0,3.7-3,6.6-6.6,6.6c-3.6,0-6.6-3-6.6-6.6c0-3.7,3-6.6,6.6-6.6c3.1,0,5.8,2.2,6.4,5.1v0.6h0.1
		C474.3,234.3,474.3,234.6,474.3,234.9z M492.7,241.5c-3.6,0-6.6-3-6.6-6.6c0-3.7,3-6.6,6.6-6.6c3.7,0,6.6,3,6.6,6.6
		C499.3,238.5,496.3,241.5,492.7,241.5z"/>
</g>
<g id="hair">
	<path d="M116.6,76.5L116.6,76.5c-1.2-3.4-3-6.4-5.3-9c-1-1.1-2.1-2.2-3.2-3.1c-5-4.1-11.3-6.6-18.3-6.6c-6.9,0-13.3,2.5-18.3,6.6
		c-1.2,1-2.3,2-3.3,3.2c-2.3,2.6-4.1,5.6-5.3,8.9l0.1,0.1c-1.2,3.2-1.9,6.6-1.9,10.2v2.4l2.5,7l3.5-15.5l2,2l3.9-3.9l3.9,3.9
		l2.7-2.7l6.3,6.3h0l0,0l3.9-3.9l1.3,1.3l2.6,2.6l0,0h0l2.6-2.6L100,80l2.7,2.7l3.9-3.9l3.9,3.9l1.7-1.7l3.4,15.2l2.9-8.1v-1.3
		C118.5,83.1,117.8,79.7,116.6,76.5z"/>
	<polygon points="487.6,46.8 486,48.3 483.9,46.2 482.4,44.7 480.9,46.2 480.2,46.9 477.9,44.7 474.3,48.3 472.8,46.8 471.8,47.8 
		471.8,50.5 489.2,50.5 489.2,48.4 	"/>
	<path class="st6" d="M223.8,183.9l16.1-10.9c0-10.5-8.5-18.9-19-18.9c-10.5,0-19,8.5-19,19v0.8l9.6,11.2c-4.8,1.5-9.1,4.2-12.4,7.9
		c-4.7,5.1-7.7,12-7.7,19.5v13.1l20.5-23.8l36.9,25.1c0,0,0-0.1,0-0.1v-14.2C248.8,197.7,237.9,185.7,223.8,183.9z"/>
	<path class="st6" d="M379,88.4c0-0.4-0.1-0.8-0.1-1.2c0-0.1,0-0.2,0-0.2c-0.2-1.6-0.4-3.1-0.8-4.6L391,58.8l-8.4,3.5l6.8-12.4
		L376,55.5l2.6-4.8l-6.7,2.8l4.9-9l1.4-2.6l-4.8,2l-13.6,5.7l3.2-5.8l1-1.8l-3.8,2.2l-29,16.7c-0.3,0.4-0.6,0.8-0.9,1.2
		c-6,7.9-9.6,17.7-9.6,28.4v4.1h0.5v0l0.6,2.5l0.2,1l2,8.7l0.5,2.4l1.2,5.1l-0.2-5.1l-0.1-2.4l-0.3-9.9l-0.1-2.4l-0.2-5.6l8.6-22
		c8.6,11,21.9,18.2,37,18.2c1,0,2.1,0,3.1-0.1l1.5,3.9l-0.2,5.5l-0.1,2.4l-0.3,9.9l-0.1,2.4l-0.2,5.2l1.2-5.2l0.5-2.4l2.3-9.9h0.5
		v-2.1v-0.1v-0.1V90v-0.1c0-0.2,0-0.3,0-0.5C379,89.1,379,88.7,379,88.4z"/>
	<g>
		<polygon class="st0" points="618.3,69.9 616.7,68.4 614.6,70.5 613.1,72 611.6,70.5 610.9,69.7 608.6,72 605,68.4 603.5,69.9 
			602.5,68.9 602.5,66.2 619.9,66.2 619.9,68.2 		"/>
		<path class="st0" d="M630.6,65.8v1.2c0,8.6,3.8,16.4,9.9,21.6v-1.2C640.5,78.8,636.7,71,630.6,65.8z"/>
		<path class="st0" d="M590.9,66.9v-0.4c-5.5,5.2-9,12.6-9,20.9v0.4C587.5,82.6,590.9,75.2,590.9,66.9z"/>
	</g>
	<path class="st9" d="M387.9,204.2l6.2-10.5l-13.3,5.5l2.6-4.8l-6.7,2.8l6.3-11.6l-16.1,6.7l-1.1-1.4l2.9-5.2l-4.7,2.7l-8.7-11.8
		l-0.4,9.1l-8.4-11.4l-0.6,14.4l-3.2-4.4l-0.3,7.3l-7.8-10.6l-0.3,6.5l-3.2-1.9l3.1,5.6l-0.1,1.5l-17.3-7.2l6.3,11.6l-6.7-2.8
		l2.6,4.8l-13.3-5.5l6.8,12.4l-8.4-3.5l7,12.7l9.9,18.1l0.3,0.5v8.7l5.2,4.8l-1.7-11l-1.3-8.8l6.4,5.9l-5.7-15.6
		c1-2.1,2.3-4,3.8-5.8l-0.5,11.9l3.4-4.5l0.9-1.2l0.9-1.3l0.1,2.5l0.6,16.9l0,0.6v0l0,0l0.5-0.6l7.4-9.9l0.1,1.8l0.2,5.5l3.3-4.4
		l0.3,9.5l0.2,4.9l8.5-11.3l0.3,9.1l4.8-6.4l9-12.1l2.7-3.6l-0.2,4.8l-0.4,8.4l5.2-7l0.3,10.7l0.3,9.3l2.8-3.7v-8.2l0.2-0.3
		l16.9-30.8L387.9,204.2z"/>
	<path class="st16" d="M634.4,335.2c2.2-2.6,3.9-5.5,5-8.7c2.3-6.4,2.2-13.6-0.7-20.3l-4,1.8l-42.2,18.6c0.2,0.5,0.4,1,0.6,1.6
		c0.5,1.5,0.8,2.9,1,4.4c-0.7,0.6-1.4,1.3-2.1,2c-4.8,5.1-7.8,12-7.8,19.6v0.4v3.4v0.1v1.2v3v5.9v0.6c0,2.9,0.4,5.8,1.3,8.5l3.2-0.5
		l-3-20l0,0c5.4-5.1,8.5-12.2,8.6-19.5c7.8,7.5,19.7,10,30.2,5.4c3.3-1.5,6.2-3.5,8.6-6c-0.2,7,2.3,13.9,7,19.2l0,0l-3.2,21.2
		l3.2,0.5c0.9-2.7,1.3-5.6,1.3-8.7v-0.6v-5.9v-3v-2.1v-0.1v-2.5v0v-0.3C641.6,346.9,638.9,340.3,634.4,335.2z"/>
	<path class="st16" d="M351.1,317.7c-6,0-11.6,1.8-16.3,4.9c-1.5,1-2.9,2.1-4.2,3.4c-5.5,5.4-8.9,12.8-8.9,21.1v3.7v1.4v8.7h3.3
		l-1.6-9.8c3.6-2.6,6.5-5.8,8.6-9.8c1.6-3.1,2.6-6.4,3-9.8c4.5,5,10.2,9.4,16.8,12.9c8.9,4.7,18.3,7.1,27.1,7.1l-1.6,9.9h3.3v-9.9
		v-0.2v-4.2C380.6,330.9,367.4,317.7,351.1,317.7z"/>
	<path d="M390.3,471.8c0-0.8-0.2-1.6-0.5-2.3c0.9-2.6,0.7-5.5-0.8-7.9c-0.3-0.5-0.7-1-1.1-1.4c0,0-0.1-0.1-0.1-0.1
		c0.1-0.2,0.2-0.4,0.2-0.6c0.8-2.7-0.7-5.6-3.5-6.4c-0.7-0.2-1.5-0.3-2.2-0.2c0-4-2.6-7.6-6.6-8.8c-1.5-0.5-3.1-0.5-4.6-0.2
		c-0.2,0-0.4,0.1-0.6,0.1c-0.8-1.4-1.9-2.6-3.3-3.5c-3.4-2-7.5-1.7-10.5,0.6c-0.2,0.1-0.4,0.2-0.6,0.3c-0.4-0.5-0.9-1-1.5-1.4
		c-1.8-1.1-4.1-0.9-5.7,0.2c-0.8,0.1-1.5,0.3-2.2,0.7c-0.1,0.1-0.3,0.2-0.4,0.3c0,0,0,0-0.1-0.1c-1.6-1.4-3.8-1.7-5.6-0.9
		c-2.2-0.4-4.4,0-6.5,1.2c-0.9,0.5-1.6,1.2-2.3,1.9c-0.8-0.3-1.7-0.6-2.6-0.6c-1.2-0.1-2.4,0-3.6,0.3c-4,1.2-6.6,4.8-6.6,8.8
		c-0.7-0.1-1.5-0.1-2.2,0.2c-2.7,0.8-4.3,3.7-3.5,6.4c0.1,0.2,0.1,0.4,0.2,0.6c0,0-0.1,0.1-0.1,0.1c-0.9,1-1.5,2.1-1.9,3.3
		c-0.8,2.3-0.6,4.9,0.5,7.1c-0.6,0.9-1,1.9-1,3.1c0,1.9,1,3.6,2.6,4.5c-1.4,1.6-2.3,3.7-2.3,6.1c0,3.1,1.5,5.8,3.8,7.5
		c-1.3,1.6-1.5,4-0.4,5.9c1.5,2.4,4.7,3.2,7.1,1.7c1.3-0.8,2.1-2.1,2.4-3.5c0.8-0.9,1.2-2.1,1.2-3.3c0-0.1,0-0.3,0-0.4
		c2.7-1.6,4.4-4.6,4.4-7.9c0-0.7-0.1-1.4-0.3-2.1c0.6-0.1,1.2-0.3,1.7-0.5c0.6,0.7,1.4,1.4,2.3,1.9c2,1.2,4.3,1.6,6.5,1.2
		c1.8,0.8,4.1,0.6,5.6-0.9c0,0,0,0,0.1-0.1c0.1,0.1,0.3,0.2,0.4,0.3c0.7,0.4,1.5,0.7,2.2,0.7c1.6,1.2,3.9,1.3,5.7,0.2
		c0.6-0.4,1.1-0.8,1.5-1.4c0.2,0.1,0.4,0.2,0.6,0.3c3,2.3,7.1,2.6,10.5,0.6c1.4-0.9,2.6-2.1,3.3-3.5c0.5,0.1,1,0.2,1.5,0.3
		c-0.1,0.6-0.2,1.3-0.2,2c0,3.5,2,6.6,4.9,8.2c-0.3,0.6-0.4,1.3-0.4,2.1c0,2.4,1.6,4.3,3.7,5c2.4,1.4,5.6,0.6,7-1.8
		c1.2-1.9,0.9-4.3-0.4-5.9c2.3-1.7,3.8-4.4,3.8-7.5c0-2.3-0.9-4.4-2.3-6.1C389.2,475.4,390.3,473.7,390.3,471.8z"/>
	<path d="M120.1,506.4c1.1-1.9,1.9-3.9,2.4-6c2,0.7,4.2,1.1,6.3,1.2c-1.2-1.1-2.3-2.4-3.4-3.7c2.9-6.4,2.5-13.4-0.4-19.3
		c5.3-11.1,0.6-24.4-10.5-29.7c-5.8-2.8-12.2-2.8-17.8-0.6c-0.4-0.1-0.7-0.2-1.1-0.3c0.7-1,1.4-1.9,2.2-2.8c1.1-1.3,2.3-2.5,3.6-3.5
		c-3.4-0.1-6.8,0.9-9.7,3c-2.5-1.6-5.4-2.5-8.3-2.7c1.3,1.2,2.5,2.6,3.6,4.1c0.4,0.5,0.7,1,1,1.5c-0.7,0.1-1.4,0.2-2,0.3
		c-5.7-2.5-12.4-2.6-18.5,0.3c-11.1,5.3-15.8,18.6-10.5,29.7c-3,5.8-3.3,12.9-0.4,19.3c-1.1,1.3-2.2,2.5-3.4,3.7
		c2.2-0.1,4.3-0.5,6.3-1.2c0.5,2.2,1.4,4.3,2.6,6.3c-1.1,2.4-2.5,4.8-4.2,7c-1.4,1.9-3,3.6-4.7,5.2c5.2-0.2,10.4-2.3,14.4-6
		c0.5,0.4,1,0.8,1.6,1.1c0.6,0.4,1.2,0.7,1.8,1c-0.5-1.4-1-2.8-1.4-4.2c0.2-0.3,0.4-0.5,0.7-0.8c5-6.6,5.7-15,2.7-22.1
		c1.3-3.1,1.9-6.4,1.7-9.7c0.1-0.1,0.1-0.2,0.2-0.3c0.4,3.4,1.6,6.8,3.7,9.9c0.4,0.6,0.8,1.1,1.2,1.6c0.2-7.4,2.4-14.6,6.4-20.9
		c0.1,0,0.2-0.1,0.3-0.1c-0.1,0-0.1,0-0.2-0.1c0.4-0.5,0.7-1.1,1.1-1.6c0.9,1.4,1.9,2.7,3.3,3.8c0.4,0.3,0.8,0.6,1.1,0.9
		c-0.7-2.8-0.9-5.7-0.8-8.6c0.7,0.7,1.4,1.5,2.1,2.3c0,3.3-0.5,6.5-1.5,9.6c0.4-0.3,0.9-0.5,1.3-0.9c1.5-1.1,2.8-2.4,3.8-3.8
		c3.7,6.1,5.7,13,5.9,20c0.4-0.5,0.8-1,1.2-1.6c2.1-3.1,3.3-6.5,3.7-9.9c0.1,0.1,0.1,0.2,0.2,0.3c-0.1,3.1,0.4,6.3,1.6,9.3
		c-2.8,7-2,15.2,2.9,21.7c0.3,0.3,0.5,0.6,0.8,0.9c-0.4,1.6-0.9,3.2-1.5,4.8c0.6-0.3,1.2-0.6,1.8-1c0.7-0.5,1.4-1,2-1.5
		c3.9,3.5,8.9,5.4,13.9,5.6c-1.7-1.6-3.2-3.3-4.7-5.2C122.5,510.9,121.2,508.7,120.1,506.4z"/>
	<path class="st16" d="M113.5,201.1c-5.2-7.6-13.9-12.6-23.8-12.6c-9.9,0-18.6,5-23.8,12.7c-12.9,1.6-23.1,11.8-24.8,24.6h21.8
		l3.3-12.4h47.2l3.3,12.4h21.8C136.8,212.8,126.5,202.6,113.5,201.1z"/>
	<g>
		<path class="st6" d="M482.3,449.7c-0.3,0-0.6,0-0.9,0c-17.2,0-31.2,13.9-31.2,31.2v15.4c0,9.2,4,17.4,10.3,23.1
			c-4.5-5.1-7.2-11.8-7.2-19.1c0-1.4,0.1-2.8,0.3-4.2c0.2,0.7,0.4,1.4,0.6,2.1c0.3,1.8,0.3,3.6,0.1,5.3c0.6-2,0.8-4.2,0.5-6.4
			c1.8,4.4,4.5,8.3,8,11.4c-4.5-5.1-7.2-11.8-7.2-19.1c0-0.1,0-0.2,0-0.3c1.3-3.1,3.2-6,5.4-8.4c-1.6,4.2-2.2,8.6-2,12.9
			c0.2-3.3,0.9-6.6,2.3-9.8c1.2-2.7,2.7-5.1,4.5-7.2c0.3-0.2,0.6-0.4,0.9-0.6c-2.1,3.4-3.5,7.1-4.2,10.8c1-3.2,2.5-6.2,4.6-9
			c1.1-1.5,2.4-2.8,3.7-4c1.7-0.7,3.4-1.3,5.3-1.7l-0.7,1.5c-1.3,3-1.8,6.2-1.6,9.2c0.1-2.1,0.6-4.3,1.5-6.4
			c0.8-1.8,1.8-3.3,2.9-4.7c0.1,0,0.3,0,0.4-0.1c-1.3,2.1-2.1,4.4-2.5,6.7c0.6-2.1,1.6-4,3-5.9c0.3-0.4,0.6-0.7,0.8-1
			c0.4-0.4,0.8-0.8,1.2-1.2L482.3,449.7z"/>
		<path class="st6" d="M482.9,449.6l-1.1,20.2c0.5,0.5,1,1,1.5,1.5c0.3,0.3,0.6,0.7,0.9,1.1c1.4,1.8,2.4,3.8,3,5.9
			c-0.4-2.4-1.3-4.7-2.6-6.8c0.1,0,0.2,0,0.3,0c1.2,1.4,2.3,3,3.1,4.9c0.9,2.1,1.4,4.3,1.5,6.4c0.2-3.1-0.3-6.2-1.6-9.2l-0.7-1.7
			c1.7,0.3,3.3,0.7,4.8,1.3c1.1,1.1,2.2,2.2,3.2,3.5c2.1,2.8,3.6,5.8,4.6,9c-0.7-3.8-2.1-7.5-4.3-11c0.3,0.1,0.5,0.3,0.7,0.4
			c1.9,2.2,3.5,4.7,4.8,7.6c1.4,3.2,2.1,6.5,2.3,9.8c0.3-4.7-0.5-9.5-2.5-14.2l0,0c2,1.7,3.8,3.7,5.3,5.9c0.9,2.8,1.4,5.7,1.4,8.8
			c0,3.5-0.6,6.8-1.8,9.9c1.9-3.9,3.1-8.2,3.3-12.7c0.5,3.6,0.4,7.3-0.5,11.1c-0.8,3.4-2.2,6.5-4.1,9.2c3-3.5,5.3-7.8,6.5-12.6
			c0.1,0.8,0.1,1.5,0.1,2.3c0,3.5-0.6,6.8-1.8,9.9c2.1-4.2,3.3-9,3.3-14v-15.4C512.5,464.1,499.4,450.5,482.9,449.6z"/>
	</g>
	<path class="st9" d="M668.8,461c-7.1-6.8-18.5-6.6-25.3,0.5c-2.3,2.4-3.8,5.2-4.5,8.2c-4-11.3-14.7-19.4-27.3-19.6
		c-0.1,0-0.7,0-0.8,0c-12.5,0.2-23.1,8.1-27.2,19.3c-0.7-2.9-2.2-5.6-4.4-7.9c-6.8-7.1-18.2-7.4-25.3-0.5
		c-7.1,6.8-7.4,18.2-0.5,25.3c0.3,0.3,0.5,0.5,0.8,0.8c0.3-4.2,2.1-8.4,5.4-11.6c6.3-6,15.9-6.5,22.7-1.7c-0.4,1.8-0.6,3.7-0.6,5.7
		v2.5l0.7,10.9c3.1-3.9,5.6-8.4,7-13.3l0,0l0.1-0.1c11-4.9,19.2-14.9,21.6-27c2.4,11.7,10.2,21.5,20.6,26.6v0
		c1.7,5.1,4.5,9.6,8.1,13.5l0.7-10.5v-2.5c0-1.9-0.2-3.7-0.5-5.5c6.9-5,16.5-4.6,22.9,1.5c3.3,3.2,5.1,7.3,5.4,11.6
		c0.3-0.3,0.6-0.5,0.8-0.8C676.1,479.2,675.9,467.8,668.8,461z"/>
	<path class="st3" d="M489.1,191.8c0.5-1.1,0.8-2.4,0.8-3.7c0-5.2-4.2-9.4-9.4-9.4c-5.2,0-9.4,4.2-9.4,9.4c0,1.3,0.3,2.5,0.7,3.6
		c-11.9,3.7-20.5,14.7-20.5,27.8v14.4c0,5.4,1.5,10.4,4,14.8l23-51.4c0.7,0.2,1.4,0.3,2.2,0.3c0.7,0,1.4-0.1,2.1-0.2l22.9,51.1
		c2.5-4.3,3.9-9.3,3.9-14.6v-14.4C509.4,206.5,500.9,195.5,489.1,191.8z"/>
	<g>
		<path d="M612.2,186.8c-6.5,0-12.5,2.1-17.3,5.7c-0.6,0.4-1.2,0.9-1.7,1.4c-6.2,5.3-10.1,13.2-10.1,22v11.2l22.4-16.3l19.6,27
			l16.2-11.7v-10.2C641.3,199.9,628.3,186.8,612.2,186.8z"/>
		<g>
			<path d="M633.5,249.7h7.4v-16.5c0,0-0.1,0-0.1,0C640.1,239.6,637.5,245.3,633.5,249.7z"/>
			<path d="M583.5,233.3v16.5h7.4c-4-4.5-6.6-10.2-7.2-16.5C583.6,233.3,583.5,233.3,583.5,233.3z"/>
		</g>
	</g>
	<g>
		<path class="st9" d="M193.4,339.7c-0.9,2.2-1.5,4.6-1.7,7.1h5.7h4v-15.2l-1.7-1.7C197,332.7,194.8,336,193.4,339.7z"/>
		<path class="st9" d="M246.8,339.7c-1.4-3.7-3.7-7.1-6.4-9.9l-2.1,2.1v15.3h4.2h6.1C248.4,344.6,247.8,342.1,246.8,339.7z"/>
		<path d="M247,305l-6.2,6.2l-3.9-3.9l-1.8,1.8l-2.1,2.1l-2.7-2.7l-3.7,3.7l-2.6,2.6l-2.6-2.6l-1.3-1.3l-3.9,3.9l0,0v0l-6.3-6.3
			l-2.7,2.7l-2.2-2.2l-1.8-1.8l-3.9,3.9l-6.2-6.2c-1.2,3.1-1.8,6.5-1.8,10v14.2c0,3.7,0.7,7.2,1.9,10.4c1.4-3.7,3.6-7,6.3-9.8
			l16.8,16.8h7l16.9-16.9c2.8,2.8,5,6.1,6.4,9.9c1.2-3.2,1.9-6.7,1.9-10.4v-14.2C248.8,311.5,248.2,308.2,247,305z"/>
	</g>
	<path class="st16" d="M220,440.8c-27.2,0-49.2,22-49.2,49.2v14.8c9.8,7.7,21.5,13.2,34.3,15.6c-8.6-4.9-14.4-14.2-14.4-24.9v-14.2
		c0-4.2,0.9-8.2,2.5-11.8l6.6,8.5h39.2l6.4-8.9c1.7,3.7,2.7,7.8,2.7,12.1v14.2c0,10.9-6.1,20.4-15.1,25.3
		c13.5-2.2,25.9-7.8,36.3-15.9v-14.9C269.3,462.9,247.2,440.8,220,440.8z"/>
	<path class="st3" d="M194.5,84.6c4.1-4.9,6.6-11.3,6.6-18.2c5.2,5.1,12.3,8.3,20.2,8.3c6.7,0,12.9-2.3,17.8-6.2
		c0.9,5.8,3.6,11,7.5,15.1v10.6h3v-1.3v-3v-3.5v-0.2v-1c0-7.4-2.8-14.2-7.5-19.3c-1-1.1-2.2-2.2-3.4-3.1c-4.9-3.9-11.1-6.2-17.8-6.2
		c-7.7,0-14.6,3-19.8,7.9c-0.3,0.3-0.7,0.7-1,1c-4.9,5.1-7.9,12.1-7.9,19.8v1.9v3v3v1.2h2.5L194.5,84.6z"/>
	<g>
		<g>
			<path class="st3" d="M126.6,340.2c-0.3-4.6-2.2-9.2-5.6-12.8c-3.4-3.6-7.9-5.7-12.5-6.3c-0.5-0.1-1.1-0.1-1.6-0.1l-8.4,7.9
				l3.2,0.1l-0.1,4l2.7,0.1l-0.2,6.4h0l0,0l4,0.1l0,1.4l-0.1,2.6h0h0l2.6,0.1l3.8,0.1l-0.1,2.7l4,0.1l-0.1,2.5l8.3-7.9
				C126.7,340.8,126.6,340.5,126.6,340.2z"/>
			<path class="st3" d="M53,340.2c0.3-4.6,2.2-9.2,5.6-12.8c3.4-3.6,7.9-5.7,12.5-6.3c0.5-0.1,1.1-0.1,1.6-0.1l8.4,7.9l-3.2,0.1
				l0.1,4l-2.7,0.1l0.2,6.4h0l0,0l-4,0.1l0,1.4l0.1,2.6l0,0l0,0l-2.6,0.1l-3.8,0.1l0.1,2.7l-4,0.1l0.1,2.5l-8.3-7.9
				C53,340.8,53,340.5,53,340.2z"/>
		</g>
		<path class="st3" d="M87.3,317.7c0.9-1.9,2.6-3.1,4.5-3.3l0.3-0.6c-2.2,0.2-4.3,1.5-5.3,3.7c-1,2.2-0.7,4.6,0.6,6.4l0.3-0.6
			C86.6,321.6,86.4,319.6,87.3,317.7z"/>
		<path class="st3" d="M91.4,317.7c0.9-1.9,2.6-3.1,4.5-3.3l0.3-0.6c-2.2,0.2-4.3,1.5-5.3,3.7c-1,2.2-0.7,4.6,0.6,6.4l0.3-0.6
			C90.7,321.6,90.5,319.6,91.4,317.7z"/>
	</g>
</g>
<g id="text">
</g>
</svg>
