<?xml version="1.0" encoding="UTF-8"?>
<svg enable-background="new 155.064 319.2968 2116.8601 3116.4988" version="1.1" viewBox="155.064 319.2968 2116.8601 3116.4988" xmlns="http://www.w3.org/2000/svg">
 <g stroke-width=".5">
  <path d="m1194 380.55c26.49-8.04 56.48-2.13 78.17 15-0.23 5.18 0.9199 10.29 0.88 15.48 0.4099 19.77-6.4401 39.63-19.23 54.76-4.75 6.57-11.12 11.64-17.39 16.67-6.92 5.36-14.45 9.9-22.4 13.55-9.47 5.15-19.71 8.58-30 11.64 20.95 1.96 42.55 6.03 60.19 18.2 18.02 13.33 29.68 33.2 38.66 53.34 2.96 8.62 3.41 17.83 5.37 26.69 1.51 8.95 3.39 17.84 4.51 26.85-0.35-0.08-1.04-0.25-1.39-0.34-26.79 21.25-54.96 40.76-83.98 58.84-23.78 14.95-48.3 28.81-73.77 40.7-5.8199 2.8-11.81 5.22-17.54 8.2-17.28 6.53-34.53 13.37-52.6 17.48-18.43 4.36-37.59 6.79-56.48 4.39-0.31-1.81-0.6-3.61-0.87-5.41-3.8-26.69-4.93-53.79-3.01-80.68 2.62-35.81 10.71-72.17 29.95-102.92 9.9299-15.88 23.02-29.86 38.62-40.28 11.51-8.03 24.63-13.22 37.56-18.48 10.5-4.21 21.12-8.14 31.93-11.53-2.79-6.74-5.76-13.47-7.15-20.68-4.85-21.92-0.78-45.69 11.31-64.63 11.06-17.62 28.68-31.02 48.66-36.84z" fill="#453F3F" stroke="#453F3F"/>
  <path d="m1272.2 395.55c13.31 10.24 23.26 24.69 28.6 40.58 8.6801 25.87 4.34 55.81-11.86 77.86 4.1899 2.86 8.58 5.42 12.77 8.31 2.72 2.05 6.22 2.38 9.36 3.5 29.47 9.78 55.18 30.11 71.98 56.18 11.41 17.57 18.87 37.53 22.97 58.02 7.3201 37 4.8101 75.27-2.09 112.13-0.4401 1.06-0.26 1.95 0.53 2.67-0.4601 0.28-1.38 0.84-1.8401 1.12-0.3899-0.27-1.1799-0.8-1.58-1.06-1.27-0.87-2.52-1.73-3.74-2.62-11.1-7.97-21.69-16.64-31.78-25.85-1.08-1.02-2.11-2-3.1699-2.98-25.21-23.42-47.33-50.34-64.41-80.25-1.84-3.41-4.14-6.65-5.15-10.43-1.12-9.01-3-17.9-4.51-26.85-1.96-8.86-2.41-18.07-5.37-26.69-8.98-20.14-20.64-40.01-38.66-53.34-17.64-12.17-39.24-16.24-60.19-18.2 10.29-3.06 20.53-6.49 30-11.64 7.95-3.65 15.48-8.19 22.4-13.55 6.27-5.03 12.64-10.1 17.39-16.67 12.79-15.13 19.64-34.99 19.23-54.76 0.0398-5.19-1.1101-10.3-0.8801-15.48z" fill="#3D3532" stroke="#3D3532"/>
  <path d="m1291.4 632.39c0.35 0.09 1.04 0.26 1.39 0.34 1.01 3.78 3.3101 7.02 5.15 10.43 17.08 29.91 39.2 56.83 64.41 80.25l0.59 1.06c-22.56-0.61-45.3 0.51-67.41 5.21-14.14 3.22-28.44 7.79-39.98 16.87-5.27 4.08-9.5601 9.36-12.51 15.33 38.87-17.67 80.71-27.49 122.48-35.49 10.09 9.21 20.68 17.88 31.78 25.85l0.52 0.66c-0.1 2.25-0.38 4.49-0.72 6.74 1.0399-1.81 2.3999-3.39 3.9399-4.78 0.4 0.26 1.1901 0.79 1.58 1.06 0.4601-0.28 1.38-0.84 1.8401-1.12 6.72 0.7 11.9 5.85 15.86 10.94 12.47 15.02 20.48 34.66 18.26 54.41-2.03 20.49-12.82 38.96-25.93 54.39-7.61 8.7401-15.99 16.83-25.06 24.05-5.05 4.24-11.45 6.25-17.55 8.44-7.02 16.1-15.2 31.69-24.31 46.71-11.35 18.73-25.18 35.8-39.52 52.3-8.7201 9.77-17.45 19.57-27.14 28.4-0.1901 11.25-0.09 22.5-0.48 33.75-0.49-0.3799-1.4501-1.1399-1.9401-1.5199 0.5 5.3199 1 10.63 1.3101 15.97 0.2799 4.0699-0.6901 8.34 0.8099 12.25 1.0601 41.51-3.4299 83.08-12.88 123.5-37.7-55.4-75.09-111.03-112.68-166.52-1.39-1.9301-2.5801-4.01-3.6-6.14 4.0599 1.9401 7.3199 5.1 10.9 7.77 15.12 11.19 30.93 21.51 47.5 30.44 0.02-19.94 0.16-39.88-0.08-59.81-7.9401-2.26-17.09-4.22-22.17-11.34 7.3501 1.61 14.51 4.48 22.17 4.22 0.0599-1.73 0.12-3.44 0.2-5.14l0.87-0.01c15.23-0.98 30.06-7.32 41.31-17.64 7.1-6.4399 12.87-14.29 17.24-22.81 3.09-5.72 4.5601-12.25 8.77-17.34-10.84 6.58-24.25 7.26-36.28 3.96-5.13-1.05-9.79-3.75-14.96-4.57-7.73 0.12-12.77 7.13-16.3 13.17-0.27-0.35-0.8099-1.05-1.08-1.4 0.71-17.68 0.27-35.41 0.24-53.1-9.13-2.81-18.71-5.56-26.02-12.01-1.88-1.55-2.87-3.81-3.83-5.96 9.85-2.8 19.9-4.84 29.86-7.21 0.28-31.17-0.05-62.35 0.1799-93.53 5.54-0.18 12.65 0.41 15.35 6.13 3.4199 7.32 5.9199 15.08 9.7999 22.21 3.86 7.08 8.16 14.5 15.29 18.73 7.78 4.56 16.97 5.5 25.75 6.59 15.19 1.23 30.49 1.87 45.7 0.56 9.42-0.35 18.84-1.37 28.09-3.18 7.5499-1.82 15.88-4.1 20.67-10.72 5.86-8.29 8.9-18.1 12.52-27.48 1.91-5.04 5.48-9.15 8.51-13.52 1.36-1.97 1.27-4.49 1.52-6.77 0.14-3.67 0.5699-7.34 0.4-11 0.0699-2.59-2-4.39-3.4-6.3-23.76-6.9-48.81-6.79-73.34-6.48-11.66-0.18-23.17 2.23-34.82 2.21-10.62 0.8199-21.25 2.09-31.68 4.22-6.8899 2.23-14.02 3.48-21.06 5.1-7.35 2.04-14.96 4.52-22.66 3.02 0.79-0.2 2.38-0.59 3.1801-0.79 0.25-26.31-0.01-52.63 0.16-78.95-0.03-1.95-0.3601-3.87-0.6901-5.77 29.02-18.08 57.19-37.59 83.98-58.84z" fill="#E5BC84" stroke="#E5BC84"/>
  <path d="m1133.6 731.93c25.47-11.89 49.99-25.75 73.77-40.7 0.33 1.9 0.66 3.82 0.6901 5.77-0.17 26.32 0.09 52.64-0.16 78.95-0.8 0.2-2.39 0.59-3.1801 0.79-12.52-0.81-24.37-5.6-36.79-7.16-27.68-4.86-55.87-5.37-83.91-5.01-15.77 0.5-31.74 0.78-47.16 4.52-4.09 0.96-9.4399 0.86-11.64 5.16-0.09 5.26 0.7001 10.51 0.61 15.79-0.0499 7.58 7.75 11.49 10.15 18.09 3.41 8.73 6.48 17.65 11.11 25.84 2.5 4.39 6.3201 8.11 11.04 10.03 7.33 2.99 15.2 4.24 23 5.37 14.83 2.17 29.89 1.7 44.82 1 11.11-0.87 22.34-1.31 33.21-3.97 6.77-1.65 13.3-5.01 17.77-10.47 7.1899-8.71 11.46-19.36 15.08-29.95 1.1899-3.22 2.14-6.8 4.78-9.19 3.08-2.7 7.36-3.14 11.29-3.37-0.23 31.18 0.1001 62.36-0.1799 93.53-9.9601 2.37-20.01 4.41-29.86 7.21 0.96 2.15 1.95 4.41 3.83 5.96 7.3101 6.45 16.89 9.2 26.02 12.01 0.03 17.69 0.47 35.42-0.24 53.1-3.34-4.6-6.88-9.84-12.69-11.42-3.83-1.27-7.51 0.93-11.05 2.1-9.8201 3.53-20.6 5.27-30.92 3.09-4.4-0.89-8.37-3.02-12.35-4.98 4.35 5.05 5.73 11.68 8.87 17.41 6.41 12.53 15.97 23.65 28.12 30.9 9.21 5.5 19.73 8.84 30.45 9.54-0.08 1.7-0.14 3.41-0.2 5.14-7.66 0.26-14.82-2.61-22.17-4.22 5.0801 7.12 14.23 9.08 22.17 11.34 0.24 19.93 0.1 39.87 0.08 59.81-16.57-8.9299-32.38-19.25-47.5-30.44-3.58-2.67-6.84-5.83-10.9-7.77 1.0199 2.13 2.21 4.21 3.6 6.14 37.59 55.49 74.98 111.12 112.68 166.52-5.89 26.05-13.95 51.57-23.25 76.59-23.1 0.02-46.19 0.05-69.28-0.02-23.72-63.75-38.17-131.66-35.92-199.92 1.1899-4.36 0.51-8.91 0.72-13.36 0.33-4.9901 0.76-9.9601 1.38-14.92-0.46 0.33-1.37 0.97-1.83 1.3-0.1801-9.3501-0.26-18.7-0.4-28.04-0.1-2.92-1.03-6.02-3.09-8.15-13.27-12.16-24.79-26.05-36.45-39.71-21.31-25.61-39.64-54.03-51.74-85.16-3.72-1.19-8.0699-1.08-11.13-3.75-14.66-10.82-28.05-23.54-38.76-38.32-11.09-15.33-19.23-33.69-18.73-52.93 0.31-18 8.73-34.92 20.32-48.35 2.27-2.94 5.26-5.17 8.43-7.06 0.27 1.8 0.56 3.6 0.87 5.41 18.89 2.4 38.05-0.03 56.48-4.39 18.07-4.11 35.32-10.95 52.6-17.48 20.7 6.15 41.4 12.6 61 21.78-8.1901-16.78-26.39-25.12-43.46-29.98z" fill="#F1D4A8" stroke="#F1D4A8"/>
  <path d="m1362.3 723.41c1.0599 0.98 2.09 1.96 3.1699 2.98-41.77 8-83.61 17.82-122.48 35.49 2.95-5.97 7.24-11.25 12.51-15.33 11.54-9.08 25.84-13.65 39.98-16.87 22.11-4.7 44.85-5.82 67.41-5.21l-0.5899-1.06z" fill="#2C3D4D" stroke="#2C3D4D"/>
  <path d="m1116.1 740.13c5.73-2.98 11.72-5.4 17.54-8.2 17.07 4.86 35.27 13.2 43.46 29.98-19.6-9.18-40.3-15.63-61-21.78z" fill="#2C3D4D" stroke="#2C3D4D"/>
  <path d="m1280.1 764.4c11.65 0.02 23.16-2.39 34.82-2.21 24.53-0.31 49.58-0.42 73.34 6.48 1.4 1.91 3.47 3.71 3.4 6.3 0.1699 3.66-0.26 7.33-0.4 11-0.25 2.28-0.16 4.8-1.52 6.77-3.03 4.37-6.6 8.48-8.51 13.52-3.62 9.38-6.66 19.19-12.52 27.48-4.79 6.62-13.12 8.9-20.67 10.72-9.25 1.81-18.67 2.83-28.09 3.18-15.21 1.31-30.51 0.67-45.7-0.56-8.78-1.09-17.97-2.03-25.75-6.59-7.13-4.23-11.43-11.65-15.29-18.73-3.88-7.13-6.38-14.89-9.7999-22.21-2.7001-5.72-9.8101-6.31-15.35-6.13-3.9299 0.23-8.21 0.67-11.29 3.37-2.64 2.39-3.5901 5.97-4.78 9.19-3.62 10.59-7.89 21.24-15.08 29.95-4.4701 5.46-11 8.82-17.77 10.47-10.87 2.66-22.1 3.1-33.21 3.97-14.93 0.7-29.99 1.17-44.82-1-7.8-1.13-15.67-2.38-23-5.37-4.72-1.92-8.54-5.64-11.04-10.03-4.63-8.1899-7.7-17.11-11.11-25.84-2.4-6.6-10.2-10.51-10.15-18.09 0.0901-5.28-0.7-10.53-0.61-15.79 2.2001-4.3 7.55-4.2 11.64-5.16 15.42-3.7401 31.39-4.02 47.16-4.52 28.04-0.36 56.23 0.15 83.91 5.01 12.42 1.56 24.27 6.35 36.79 7.16 7.7001 1.5 15.31-0.98 22.66-3.02 7.04-1.62 14.17-2.87 21.06-5.1 10.43-2.13 21.06-3.4 31.68-4.22m18.41 3.51c-15.61 1.3-31.37 2.31-46.66 5.96-5.51 1.7-11.66 2.88-15.87 7.12-4.08 4.19-3.87 10.51-3.35 15.92 1.41 10.05 4.77 19.83 9.6799 28.71 3.42 6.33 8.75 11.93 15.69 14.29 8.6799 3.01 17.94 3.57 27.01 4.54 15.71 0.51 31.53 0.72 47.14-1.5 9.09-1.31 18.73-2 26.7-7.06 5.4301-3.35 8.66-9.13 10.94-14.91 4.72-12.42 6.84-25.74 6.97-38.99 0.3099-4.41-2.37-8.82-6.63-10.21-10.93-3.72-22.62-4.51-34.09-4.47-4.38 0.16-8.7001-0.85-13.06-0.45-8.13 0.84-16.34 0.28-24.47 1.05m-224.95 2.01c-9.0599 0.74-18.38 1.39-26.85 4.96-4.5699 2.07-6.23 7.44-5.9399 12.12 0.97 15.91 3.8999 32.23 12.19 46.08 3.5601 6.01 10.42 8.86 16.93 10.4 22.29 4.93 45.4 5.09 67.97 2.15 10.42-1.27 21.58-2.14 30.44-8.35 5.9701-4.8701 9.1801-12.13 12.02-19.09 3.42-9.28 5.88-19.2 5.03-29.14-0.42-4.93-4.27-8.91-8.73-10.61-9.5-3.7-19.69-5.01-29.73-6.39-24.3-3.2-48.89-2.9-73.33-2.13z" fill="#453F3F" stroke="#453F3F"/>
  <path d="m1298.5 767.91c8.13-0.77 16.34-0.21 24.47-1.05 4.36-0.4 8.6801 0.61 13.06 0.45 11.47-0.04 23.16 0.75 34.09 4.47 4.26 1.39 6.9399 5.8 6.63 10.21-0.13 13.25-2.25 26.57-6.97 38.99-2.28 5.78-5.51 11.56-10.94 14.91-7.97 5.06-17.61 5.75-26.7 7.06-15.61 2.22-31.43 2.01-47.14 1.5-9.0701-0.97-18.33-1.53-27.01-4.54-6.9401-2.36-12.27-7.96-15.69-14.29-4.9099-8.88-8.2699-18.66-9.6799-28.71-0.52-5.41-0.73-11.73 3.35-15.92 4.21-4.24 10.36-5.42 15.87-7.12 15.29-3.65 31.05-4.66 46.66-5.96m-38.38 26.01l1.39-0.31c-6.0601 5.58-12.24 11.22-16.5 18.37 9.6899 3.88 19.94 5.98 30.05 8.39 3.28 1.75 7.17 1.82 10.78 2.42 17.95 1.59 37.14 0.36 53.04-8.91 14.8-9.12 26.68-22.38 36.08-36.88-18.52-4.97-37.9-7.26-57.05-5.9-20.83 1.96-41.73 9.12-57.79 22.82z" fill="#E5BC84" stroke="#E5BC84"/>
  <path d="m1073.6 769.92c24.44-0.77 49.03-1.07 73.33 2.13 10.04 1.38 20.23 2.69 29.73 6.39 4.46 1.7 8.3099 5.68 8.73 10.61 0.85 9.94-1.61 19.86-5.03 29.14-2.84 6.96-6.0499 14.22-12.02 19.09-8.86 6.21-20.02 7.08-30.44 8.35-22.57 2.94-45.68 2.78-67.97-2.15-6.51-1.54-13.37-4.39-16.93-10.4-8.29-13.85-11.22-30.17-12.19-46.08-0.29-4.68 1.37-10.05 5.9399-12.12 8.4699-3.57 17.79-4.22 26.85-4.96m2.55 1.49c-10.47 1.15-21.12 2.42-31.11 5.88 9.27 13.64 20.27 26.49 34.24 35.49 10.86 7.05 23.95 9.79 36.72 10.47 9.36 0.37 18.83 0 27.98-2.11-0.2-0.08-0.6-0.25-0.7999-0.34 10.63-2.72 21.56-4.58 31.73-8.87-4.14-7.11-10.37-12.59-16.2-18.25l1.2001 0.41c-5.03-4.82-11.13-8.38-17.27-11.58-20.38-10.39-43.88-13.59-66.49-11.1z" fill="#F1D4A8" stroke="#F1D4A8"/>
  <path d="m1076.1 771.41c22.61-2.49 46.11 0.71 66.49 11.1 6.14 3.2 12.24 6.76 17.27 11.58l-1.2001-0.41c-8.85-3.22-18.01-5.45-27.11-7.79 2.5701 4.59 4.02 9.92 3.1901 15.19-1.0801 8.86-8.09 16.68-16.87 18.45-9.13 2.08-19.15-2.79-23.33-11.12-4.9199-8.97-2.46-20.8 5.17-27.48-13.01-0.39-26 0.94-38.82 3.08 5.5699 15.24 19.09 26.42 34.05 31.89 15.31 5.58 32.07 6.99 48.19 4.9 0.2 0.09 0.6 0.26 0.7999 0.34-9.1499 2.11-18.62 2.48-27.98 2.11-12.77-0.68-25.86-3.42-36.72-10.47-13.97-9-24.97-21.85-34.24-35.49 9.9901-3.4598 20.64-4.7298 31.11-5.8798m47.14 16.94c-4.3301 1.66-4.3101 8.69 0.04 10.32 3.5299 1.52 7.22-2.21 6.6599-5.74-0.1399-3.19-3.6099-5.96-6.6999-4.58z" fill="#2C3D4D" stroke="#2C3D4D"/>
  <path d="m1260.2 793.92c16.06-13.7 36.96-20.86 57.79-22.82 19.15-1.36 38.53 0.9301 57.05 5.9-9.4 14.5-21.28 27.76-36.08 36.88-15.9 9.27-35.09 10.5-53.04 8.91-3.61-0.6-7.5-0.67-10.78-2.42 10.21 1.97 20.74 1.57 31.01 0.24 14.79-2.02 29.58-7.51 40.52-17.96 5.47-5.1801 9.85-11.55 12.46-18.64-12.82-2.14-25.82-3.47-38.82-3.08 3.0699 3.02 5.72 6.61 6.85 10.84 2.62 8.7-0.7 18.86-8.15 24.14-7.5499 5.6801-18.88 5.35-26.03-0.86-8.5601-6.85-10.26-19.99-4.51-29.16-9.02 2.33-18.11 4.52-26.88 7.72l-1.3901 0.31m52.13-5.57c-4.3201 1.64-4.3301 8.64-0.01 10.31 3.54 1.56 7.28-2.2 6.7-5.75-0.1599-3.17-3.61-5.94-6.69-4.56z" fill="#2C3D4D" stroke="#2C3D4D"/>
  <path d="m1060.9 784.01c12.82-2.14 25.81-3.47 38.82-3.08-7.63 6.68-10.09 18.51-5.17 27.48 4.1801 8.33 14.2 13.2 23.33 11.12 8.78-1.77 15.79-9.59 16.87-18.45 0.83-5.27-0.62-10.6-3.1901-15.19 9.1001 2.34 18.26 4.57 27.11 7.79 5.8301 5.66 12.06 11.14 16.2 18.25-10.17 4.29-21.1 6.15-31.73 8.87-16.12 2.09-32.88 0.68-48.19-4.9-14.96-5.4701-28.48-16.65-34.05-31.89z" fill="#fff" stroke="#fff"/>
  <path d="m1320.3 780.93c13-0.39 26 0.94 38.82 3.08-2.61 7.09-6.99 13.46-12.46 18.64-10.94 10.45-25.73 15.94-40.52 17.96-10.27 1.33-20.8 1.73-31.01-0.24-10.11-2.41-20.36-4.51-30.05-8.39 4.26-7.15 10.44-12.79 16.5-18.37 8.77-3.2 17.86-5.39 26.88-7.72-5.75 9.17-4.05 22.31 4.51 29.16 7.1499 6.21 18.48 6.54 26.03 0.86 7.4501-5.28 10.77-15.44 8.15-24.14-1.1299-4.23-3.7799-7.82-6.8499-10.84z" fill="#fff" stroke="#fff"/>
  <path d="m1123.3 788.35c3.09-1.38 6.5599 1.39 6.7 4.58 0.5601 3.53-3.13 7.26-6.6599 5.74-4.3501-1.63-4.3702-8.66-0.0401-10.32z" fill="#fff" stroke="#fff"/>
  <path d="m1312.3 788.35c3.08-1.38 6.53 1.39 6.6899 4.56 0.5801 3.55-3.1599 7.31-6.7 5.75-4.3199-1.67-4.3099-8.67 0.0101-10.31z" fill="#fff" stroke="#fff"/>
  <path d="m1140.6 954.02c3.98 1.96 7.95 4.09 12.35 4.98 10.32 2.18 21.1 0.44 30.92-3.09 3.5399-1.17 7.22-3.37 11.05-2.1 5.8101 1.58 9.3501 6.82 12.69 11.42 0.27 0.35 0.8099 1.05 1.08 1.4-0.22 0.38-0.64 1.13-0.86 1.51-2.34 0.15-4.64 0.49-6.95 0.71-17.39 1.1-36.05 1.64-51.94-6.6 6.76 11.97 16.06 22.77 28.02 29.77 9.3101 5.56 20.2 8.16 31.01 8.03l0.92-0.01c0 3.94 0.0099 7.88 0.0199 11.82l-0.87 0.01c-10.72-0.7-21.24-4.04-30.45-9.54-12.15-7.25-21.71-18.37-28.12-30.9-3.1398-5.73-4.5198-12.36-8.8698-17.41z" fill="#E97954" stroke="#E97954"/>
  <path d="m1208.7 966.63c3.53-6.04 8.5701-13.05 16.3-13.17 5.1699 0.82 9.83 3.52 14.96 4.57 12.03 3.3 25.44 2.62 36.28-3.96-4.21 5.09-5.6801 11.62-8.77 17.34-4.37 8.52-10.14 16.37-17.24 22.81-11.25 10.32-26.08 16.66-41.31 17.64-0.01-3.94-0.0199-7.88-0.0199-11.82 15.58 0.23 30.82-6.25 42.02-16.98 6.12-5.76 11.33-12.47 15.39-19.83-18.33 8.11-39.01 6.64-58.47 4.91 0.2201-0.38 0.6401-1.13 0.8601-1.51z" fill="#D47150" stroke="#D47150"/>
  <path d="m1149 962.25c15.89 8.24 34.55 7.7 51.94 6.6 2.3199-0.05 4.6599 0.03 7 0.12 0.1599 10.36-0.02 20.72 0.09 31.08-10.81 0.13-21.7-2.47-31.01-8.03-11.96-7-21.26-17.8-28.02-29.77z" fill="#fff" stroke="#fff"/>
  <path d="m1207.9 968.14c19.46 1.73 40.14 3.2 58.47-4.91-4.0599 7.36-9.27 14.07-15.39 19.83-11.2 10.73-26.44 17.21-42.02 16.98l-0.92 0.01c-0.11-10.36 0.0699-20.72-0.09-31.08-2.3401-0.09-4.6801-0.17-7-0.12 2.3099-0.22 4.6099-0.56 6.9499-0.71z" fill="#EBEBEB" stroke="#EBEBEB"/>
  <path d="m1137.7 1068.1c0.46-0.3301 1.37-0.9701 1.83-1.3-0.62 4.96-1.05 9.9299-1.38 14.92-1.0699 4.37-1.5599 8.8899-0.72 13.36-2.25 68.26 12.2 136.17 35.92 199.92-18.31 0.0701-36.61 0.04-54.92 0.02-8.51-11.38-17.27-22.64-24.34-35.02-1.8101-3.5-4.9401-6.76-5.01-10.83 2.4299-4.71 6.11-8.63 9.08-12.99 5.8-8.42 12.42-16.27 17.85-24.95-4.86-3.46-10.38-5.75-15.59-8.5699-10.48-6.11-21.69-10.82-32.1-17.05 2.9199-17.2 10.99-32.93 19.14-48.16 8.96-16.14 19.73-31.17 30.76-45.94 6.47-7.82 12.71-15.85 19.48-23.41z" fill="#B13B75" stroke="#B13B75"/>
  <path d="m1276.6 1066.7c0.49 0.38 1.4501 1.14 1.9401 1.5199 5.4199 6.1901 10.47 12.72 15.94 18.88 11.03 14.93 22.38 29.73 31.54 45.93 5.08 8.49 9.3199 17.45 13.57 26.39 3.35 8.48 6.78 17.06 8.1 26.15-9.12 5.52-18.88 9.83-28.22 14.94-6.34 3.8301-13.39 6.41-19.44 10.74 8.11 12.33 17.45 23.81 25.86 35.95 2.52 2.87-0.24 6.33-1.66 9.01-7.73 13.71-17.14 26.35-26.68 38.8-18.33 0.03-36.64 0.03-54.96 0 9.3-25.02 17.36-50.54 23.25-76.59 9.4501-40.42 13.94-81.99 12.88-123.5 0.61-4.11 0.2101-8.25-0.8099-12.25-0.3101-5.3399-0.8101-10.65-1.3101-15.97z" fill="#972E62" stroke="#972E62"/>
  <path d="m1137.4 1095c-0.84-4.4701-0.35-8.99 0.72-13.36-0.21 4.45 0.47 9.0001-0.72 13.36z" enable-background="new " fill="#7C2C52" opacity=".7" stroke="#7C2C52"/>
  <path d="m1277.9 1082.6c1.02 4 1.4199 8.14 0.8099 12.25-1.4999-3.91-0.53-8.18-0.8099-12.25z" enable-background="new " fill="#6C2546" opacity=".69" stroke="#6C2546"/>
  <path d="m1294.5 1087.1c10.42 0.55 20.62 3.3101 30.77 5.65 40.66 10.51 79.56 26.81 117.58 44.46 15.81 7.37 31.35 15.32 46.84 23.34 0.1499 0.65 0.45 1.9299 0.6 2.58 4.02 2.47 7.75 5.42 11.87 7.76 2.77 1.8101 5.87 3.4 7.86 6.17 12.12 17.98 24.41 35.88 35.49 54.53 4.9 7.6899 9.02 15.83 12.83 24.11 2.03 5.0499 5.4901 9.33 7.91 14.19 4.39 8.46 9.02 16.78 13.62 25.13-94.1 0.01-188.2 0.03-282.3-0.01 9.5399-12.45 18.95-25.09 26.68-38.8 1.42-2.6801 4.1801-6.14 1.66-9.01-8.41-12.14-17.75-23.62-25.86-35.95 6.0499-4.33 13.1-6.9099 19.44-10.74 9.3401-5.11 19.1-9.4199 28.22-14.94-1.3199-9.0901-4.75-17.67-8.1-26.15-4.25-8.9401-8.49-17.9-13.57-26.39-9.1601-16.2-20.51-31-31.54-45.93z" fill="#842A56" stroke="#842A56"/>
  <path d="m1038.7 1113.7c25.9-9.2999 52.49-16.74 79.45-22.25-11.03 14.77-21.8 29.8-30.76 45.94-8.15 15.23-16.22 30.96-19.14 48.16 10.41 6.2301 21.62 10.94 32.1 17.05 5.21 2.8199 10.73 5.11 15.59 8.5699-5.4299 8.6801-12.05 16.53-17.85 24.95-2.97 4.36-6.65 8.28-9.08 12.99 0.0699 4.0699 3.2 7.33 5.01 10.83 7.0699 12.38 15.83 23.64 24.34 35.02-88.84-0.01-177.69 0.11-266.53-0.0599 4.74-9.4401 9.65-18.84 15.23-27.82 8.04-18.65 19.24-35.64 30.19-52.67 5.16-7.87 10.4-15.7 15.75-23.45 2.23-3.09 3.83-6.83 7.1-9.01 3.93-2.78 8.16-5.11 12.13-7.84 1.47-2.47 4.08-3.83 6.29-5.55 30.75-22.6 64.02-42.26 100.18-54.86z" fill="#9A3265" stroke="#9A3265"/>
  <path d="m642 1295c69.95-0.05 139.91 0.1 209.86-0.08 88.84 0.1699 177.69 0.0499 266.53 0.0599 18.31 0.02 36.61 0.05 54.92-0.02 23.09 0.0701 46.18 0.04 69.28 0.02 18.32 0.03 36.63 0.03 54.96 0 94.1 0.04 188.2 0.02 282.3 0.01 72.05 0.02 144.1 0 216.15 0.01-0.01 13.68 0 27.37-0.01 41.05-98.01 0.35-196.04 0.01-294.06 0.1499-221.96-0.0299-443.92 0-665.88-0.0199-55.12-0.0601-110.23 0.1599-165.34-0.0901-0.03-7.0399 0.0099-14.06 0.0099-21.08-0.14-0.5601-0.42-1.6801-0.56-2.24-3.49-0.3201-7.0099-0.0601-10.5-0.0801-0.03 7.79-0.0099 15.58-0.0099 23.37-5.88 0.23-11.77 0.1299-17.64-0.03-0.0199-13.68-0.0099-27.35-0.0099-41.03z" fill="#DC9A22" stroke="#DC9A22"/>
  <path d="m659.66 1312.7c3.4901 0.02 7.01-0.24 10.5 0.0801 0.14 0.5599 0.42 1.6799 0.56 2.24 0 7.02-0.04 14.04-0.0099 21.08 0.0099 213.81-0.03 427.62 0.02 641.43 29.21-28.06 58.27-56.27 87.43-84.39 17.07-16.62 34.4-32.97 51.31-49.75-1.93-6.66-1.05-14.2 3.15-19.82 5.54-7.9701 16.64-11.33 25.68-7.7401 7.34 2.66 12.54 9.4801 14.09 17.03 28.82 8.12 57.65 16.19 86.48 24.23 3.52-4.5299 8.38-8.22 14.14-9.1899 6.36-1.38 13 0.58 18.15 4.4 52.55-38.26 104.69-77.09 157.2-115.41-0.67-5.91-0.1799-12.24 3.3201-17.26 5.61-8.99 18.1-12.59 27.65-7.96 5.2101 2.23 8.88 6.8099 11.46 11.73 46.3-11.98 92.62-23.88 138.96-35.76 0.35-7.11 3.67-14.17 9.6899-18.18 7.6101-5.46 18.52-5.0599 25.94 0.5701 38.34-31.61 76.3-63.7 114.62-95.34-1.3199-5.3601-2.02-11.14 0.21-16.35 3.15-8.4199 11.86-14.36 20.87-14.06 5.05-0.12 9.7101 2.13 13.84 4.84 59.97-36.36 119.97-72.64 179.94-108.99-3.87-5.77-8.36-11.13-11.91-17.09 16.29-6.62 32.93-12.42 49.35-18.73 12.81-4.75 25.54-9.7001 38.4-14.32-20.23 23.79-40.26 47.76-60.58 71.47-2.97-4.09-5.86-8.25-8.85-12.32-59.94 36.32-119.9 72.62-179.86 108.92 1.39 4.7799 2 9.99 0.38 14.82-2.5801 8.6-10.88 15.09-19.87 15.43-5.51 0.3999-10.82-1.6901-15.21-4.87-38.21 31.67-76.27 63.51-114.38 95.3 2.36 6.3 2.3101 13.63-1.1 19.56-4.37 8.12-14.18 12.76-23.23 10.97-6.52-1.0601-12.02-5.4401-15.44-10.96-46.8 11.93-93.54 24.1-140.34 36.03-1.37 7.55-6.13 14.63-13.39 17.6-8.46 3.84-18.8 1.2899-25.13-5.3201-52 38.12-103.89 76.39-155.84 114.58 1.43 4.89 2.08 10.2 0.35 15.12-2.7 8.6499-11.18 15.07-20.25 15.23-8.68 0.3999-17.24-4.92-20.75-12.85-1.77-3.5099-1.88-7.5-2.25-11.32-27.92-7.62-55.74-15.59-83.63-23.33-2.43 5.61-6.71 10.57-12.52 12.8-7.65 3.26-16.81 1.4601-23.05-3.9-41.46 39.78-82.68 79.81-124.04 119.7-4.28 4.1899-8.71 8.24-12.86 12.57 339.37 0.14 678.75 0.02 1018.1 0.0601 27.16 0.13 54.33-0.27 81.49 0.2-0.14 3.6-0.16 7.22-0.14 10.85-372.89 0.02-745.79 0.02-1118.7 0-0.03-7.83-0.0099-15.65-0.0099-23.47v-636.79c-3e-4 -7.7903-0.0203-15.58 0.0097-23.37m816.82 233.98c-9.16 1.98-16.35 10.85-15.75 20.31 0.0801 10.19 9.1 19.23 19.3 19.34 9.9199 0.6101 19.41-7.35 20.58-17.21 1.23-8.0599-2.99-16.65-10.24-20.42-4.1801-2.3899-9.22-2.9499-13.89-2.0199m-151.14 121.95c-7.6599 2.63-13.36 10.25-13.39 18.4-0.35 7.47 4.0601 14.86 10.67 18.3 5.95 3.2001 13.59 3.0601 19.41-0.3899 5.95-3.39 9.9299-10.06 9.96-16.93 0.27-6.99-3.55-13.98-9.5699-17.52-5.0401-3.1499-11.48-3.79-17.08-1.8599m-180.17 43.61c-8.76 2.13-15.42 10.68-15.09 19.73-0.13 10.17 8.7001 19.44 18.89 19.73 9.5601 0.78 18.89-6.4399 20.76-15.79 1.8301-8.14-2.02-17.24-9.28-21.39-4.5198-2.8101-10.15-3.5201-15.28-2.2801m-321.69 105.42c-8.17 2.9199-13.76 11.59-12.97 20.25 0.49 10.31 10.13 19.12 20.47 18.57 9.66 0.01 18.44-8.0399 19.41-17.62 1.08-7.95-3.24-16.26-10.31-20-5-2.8099-11.25-3.2299-16.6-1.1999m126.97 33c-9.2 3.1-15 13.45-12.86 22.93 1.8199 9.6801 11.54 17.01 21.37 15.91 11.33-0.66 20.41-12.41 18-23.56-1.81-11.77-15.37-19.76-26.51-15.28z" fill="#E8EBF0" stroke="#E8EBF0"/>
  <path d="m642.01 1336c5.87 0.1599 11.76 0.26 17.64 0.03v636.79c-5.89-0.0699-11.77-0.02-17.65 0.04-0.01-100.18 0-200.36 0-300.54-0.01-47.65 0.01-95.3-0.01-142.95 0.03-64.45-0.01-128.91 0.02-193.37z" fill="#F5AB26" stroke="#F5AB26"/>
  <path d="m670.71 1336.1c55.11 0.25 110.22 0.03 165.34 0.0901 221.96 0.0199 443.92-0.01 665.88 0.0199 98.02-0.1399 196.05 0.2001 294.06-0.1499 0.03 64.09-0.01 128.19 0.02 192.28-0.03 46.79 0 93.58-0.01 140.37 0 101.4 0.01 202.79 0 304.19-350-0.16-700-0.04-1050-0.0701-18.09-0.12-36.19 0.1901-54.28-0.1799 41.36-39.89 82.58-79.92 124.04-119.7 6.24 5.3601 15.4 7.16 23.05 3.9 5.81-2.23 10.09-7.1899 12.52-12.8 27.89 7.74 55.71 15.71 83.63 23.33 0.37 3.8199 0.48 7.8101 2.25 11.32 3.5099 7.9301 12.07 13.25 20.75 12.85 9.07-0.16 17.55-6.5801 20.25-15.23 1.73-4.92 1.08-10.23-0.35-15.12 51.95-38.19 103.84-76.46 155.84-114.58 6.3301 6.61 16.67 9.16 25.13 5.3201 7.26-2.9701 12.02-10.05 13.39-17.6 46.8-11.93 93.54-24.1 140.34-36.03 3.4199 5.5199 8.9199 9.8999 15.44 10.96 9.05 1.79 18.86-2.85 23.23-10.97 3.41-5.9301 3.46-13.26 1.1-19.56 38.11-31.79 76.17-63.63 114.38-95.3 4.39 3.1799 9.7001 5.2699 15.21 4.87 8.99-0.3401 17.29-6.8301 19.87-15.43 1.62-4.83 1.01-10.04-0.38-14.82 59.96-36.3 119.92-72.6 179.86-108.92 2.99 4.0699 5.88 8.23 8.85 12.32 20.32-23.71 40.35-47.68 60.58-71.47-12.86 4.62-25.59 9.5701-38.4 14.32-16.42 6.3099-33.06 12.11-49.35 18.73 3.55 5.96 8.04 11.32 11.91 17.09-59.97 36.35-119.97 72.63-179.94 108.99-4.13-2.71-8.79-4.96-13.84-4.84-9.01-0.3-17.72 5.64-20.87 14.06-2.23 5.2101-1.5299 10.99-0.21 16.35-38.32 31.64-76.28 63.73-114.62 95.34-7.42-5.63-18.33-6.03-25.94-0.5701-6.0199 4.01-9.34 11.07-9.6899 18.18-46.34 11.88-92.66 23.78-138.96 35.76-2.5801-4.92-6.25-9.5-11.46-11.73-9.5499-4.63-22.04-1.03-27.65 7.96-3.5 5.02-3.9901 11.35-3.3201 17.26-52.51 38.32-104.65 77.15-157.2 115.41-5.15-3.8201-11.79-5.78-18.15-4.4-5.76 0.97-10.62 4.66-14.14 9.1899-28.83-8.0399-57.66-16.11-86.48-24.23-1.55-7.5499-6.75-14.37-14.09-17.03-9.04-3.59-20.14-0.23-25.68 7.7401-4.2 5.62-5.08 13.16-3.15 19.82-16.91 16.78-34.24 33.13-51.31 49.75-29.16 28.12-58.22 56.33-87.43 84.39-0.05-213.81-0.01-427.62-0.02-641.43z" fill="#F5AB26" stroke="#F5AB26"/>
  <path d="m1796 1528.3c61.17 41.27 128.17 73.56 197.76 97.9 3.89 1.1 3.5499 5.59 3.9299 8.78 3.8501 2.35 8.8301 2.87 11.81 6.53 0.97 1.0499 1.99 2.0599 3.1799 2.96-10.71 2.2-21.14 5.63-31.32 9.58-11.84 4.86-23.69 10.39-33.39 18.9-4.7 5.03-10.63 9.28-13.15 15.95-2.4299 4.71-1.6899 10.14-3 15.15 4.2101 1.3501 8.11 3.4301 12.14 5.24-3.85 3.6801-9.27 8.2201-14.92 5.8601-44.84-14.03-89.27-29.41-133.05-46.48 0.0099-46.79-0.0201-93.58 0.0099-140.37z" fill="#842A56" stroke="#842A56"/>
  <path d="m623.98 1541c6.04-3.7999 11.58-8.4199 18.01-11.57 0.02 47.65 0 95.3 0.01 142.95-43.08 17.19-86.86 32.56-131.02 46.73-5.32 1.5801-10.56 3.51-15.95 4.8401-3.98-0.26-7.99-2.4-10.42-5.5601-1.22-0.28-2.43-0.51-3.64-0.6899l0.32-0.42c5.31 0.16 9.76-2.95 14.41-5.03-0.98-4.99-0.7-10.26-2.73-14.99-3.36-8.35-10.24-14.65-17.28-19.95-13.97-10.07-30.19-16.48-46.54-21.55-4.42-1.23-8.78-2.86-13.35-3.4299 2.01-5.79 8.79-6.5601 13.48-9.26 0.27-2.52 0.45-5.04 1.36-7.4 6.39-3.37 13.51-5.01 20.17-7.76 60.65-22.54 119.14-51.25 173.17-86.91z" fill="#9A3265" stroke="#9A3265"/>
  <path d="m1476.5 1546.7c4.67-0.9301 9.71-0.37 13.89 2.0199 7.25 3.77 11.47 12.36 10.24 20.42-1.17 9.86-10.66 17.82-20.58 17.21-10.2-0.11-19.22-9.1499-19.3-19.34-0.6-9.4599 6.5899-18.33 15.75-20.31z" fill="#F5AB26" stroke="#F5AB26"/>
  <path d="m2022 1642.9c5.3199-0.3201 10.57-1.38 15.93-1.37 7.1101-0.5801 14.45-2.15 21.5-0.1801 4.5 0.5 9.04 0.88 13.52 1.75 18.85 2.6801 37.03 9.2001 53.8 18.14 6.8101 2.34 12.44 7.05 18.84 10.28 4.6099 3.04 11.33 4.63 13.25 10.44-1.5801 7.05-7.0901 13.06-13.9 15.39-7.6499 1.53-15.32-0.49-22.87-1.58-4.6702-0.66-8.9202-2.71-13.2-4.51-4.71-2.33-9.6099-4.39-13.8-7.5701-1.72 0.3101-3.3501 0.9401-4.98 1.4701-1.1501 0.47-2.26 0.98-3.3301 1.5299-1.4001 0.76-2.78 1.51-4.1699 2.25 1.0198 3.7401 4.7698 5.5801 7.5198 7.9501 20.55 14.95 43.91 25.35 66.93 35.86 5.6299 2.49 11.23 5.08 16.88 7.59 10.29 4.36 20.57 8.74 30.96 12.88 4.6201 2.26 10.08 2.51 14.3 5.67 3.22 2.29 6.74 4.42 9.1101 7.6799 4.3499 5.52 5.45 13.28 3.4099 19.94-1.22 4.34-6.01 5.8099-9.6599 7.48 0.8298 2.5 2.46 5.45 0.55 7.92-2.2302 3.1899-5.2002 5.8099-8.1501 8.3199-3.05 2.6801-7.4099 2.8101-11.18 1.98 1.5 5.51-5.6001 6.4401-9.1899 8-12.09 2.9301-24.74 3.4501-36.99 1.3-12.77-0.54-25.54-1.64-38.01-4.59-5.74-1.24-11.48-2.4701-17.2-3.76-3.8999-1.3201-8.0698-1.67-11.83-3.3301-6.1802-2.6499-13.21-3.9299-18.28-8.61-17.14-8.03-33.93-16.87-49.92-27.03-16.4-10.63-31.95-22.55-46.81-35.24-9.8501-9.5399-21.93-17.14-29.02-29.18-0.51-0.11-1.54-0.34-2.0601-0.4501-4.03-1.8099-7.9299-3.8899-12.14-5.24 1.3101-5.01 0.5701-10.44 3-15.15 2.52-6.67 8.4501-10.92 13.15-15.95 9.7001-8.51 21.55-14.04 33.39-18.9 10.18-3.95 20.61-7.38 31.32-9.58 3.05-0.7996 6.23-0.9596 9.33-1.5996m-54.08 52.58c5.6001 1.17 11.37 1.26 17.01 2.3101 13.65 2.4199 27.35 6.47 38.91 14.35 9.89 6.35 18.17 15.57 22.41 26.63 5.5 16.7 19.24 28.97 33.35 38.63 18.86 12.2 39.69 21.36 61.3 27.4-2.78-4.37-8.0498-5.55-12.57-7.2301-10.75-4.2-21.43-8.6599-31.41-14.46-13.48-7.83-26.78-17.07-35.93-29.9 6.8899-2.33 13.51-5.33 20-8.61 2.96 2.12 5.5801 4.67 8.28 7.13 16.25 13.37 34.43 24.15 53.05 33.86 7.26 3.4701 14.23 7.73 21.87 10.36-3.6599-3.1899-8.1399-5.1799-12.17-7.7999-22.81-14.31-44.54-30.24-65.95-46.55 3.3599-2.65 6.9099-5.0499 10-8.02 17.16 10.81 35.65 19.23 54.34 26.99 3.27 1.25 6.3701 3.0601 9.9001 3.6001-2.3501-2.3401-5.46-3.5701-8.27-5.16-17.37-9.74-34.51-19.88-52.01-29.35 2.0701-3.98 5.76-7.25 6.1099-11.95-1.0498 0.78-2.0498 1.61-2.97 2.52-12.62 12.96-28.53 23.12-46.07 27.8-2.55-4.66-5.4302-9.53-5.1501-15.04 0.0701-7.77-4.37-14.89-10.18-19.76-10.51-8.8199-24.05-12.66-37.15-15.76-12.05-2.2802-24.52-4.9201-36.7-1.9901z" fill="#F1D4A8" stroke="#F1D4A8"/>
  <path d="m367.64 1649.3c5.33-1.5299 10.96-0.8099 16.41-0.4099 4.72 1.0399 9.63 0.39 14.37 1.37 5.84 0.2999 11.55 1.7 17.38 2.01 4.57 0.5699 8.93 2.2 13.35 3.4299 16.35 5.0701 32.57 11.48 46.54 21.55 7.04 5.2999 13.92 11.6 17.28 19.95 2.03 4.73 1.75 10 2.73 14.99-4.65 2.0801-9.1 5.1901-14.41 5.03l-0.32 0.42c-5.12 9.01-13.34 15.52-21.07 22.18-23.29 20.95-48.48 40.03-76.13 54.89-0.88 0.48-1.75 0.98-2.63 1.5-8.45 4.71-17.26 8.73-25.93 12.99-5.53 5.02-13.21 6.25-19.86 9.21-9.04 2.5701-18.25 4.52-27.44 6.4701-9.84 2.1899-19.83 3.6799-29.9 4.13-7.72 0.0699-15.28 1.89-23.02 1.7799-9.28 0-18.76-1.0599-27.4-4.5599-2.51-0.84-5.04-3.1901-3.87-6.05-3.77 0.8201-8.15 0.7201-11.17-1.98-2.96-2.52-5.95-5.13-8.16-8.34-1.93-2.47-0.29-5.4 0.55-7.9-3.47-1.61-7.94-2.92-9.42-6.84-2.83-7.91-0.75-17.46 5.48-23.18 4.72-3.9399 9.85-7.76 16.04-8.87 12.25-4.49 24.17-9.84 36.22-14.83 2.26-1.1 4.56-2.11 6.85-3.11 0.49-0.23 1.47-0.6801 1.95-0.91 20.49-9.1 41-18.32 60.34-29.74 7.72-4.96 16-9.58 22.09-16.58-2.58-3.67-7.58-4.42-11.49-6.1001-0.31-0.0499-0.92-0.14-1.23-0.1799-1.71 1.49-3.63 2.6899-5.68 3.6699-2.71 1.2101-5.22 2.8201-7.99 3.9301-4.13 1.74-8.22 3.74-12.71 4.42-7.75 1.09-15.63 3.2999-23.47 1.63-6.77-2.3501-12.22-8.3401-13.78-15.35 1.7-5.34 7.69-7.08 12.02-9.72 7.28-3.8099 13.86-8.96 21.66-11.74 8.66-4.73 17.83-8.45 27.18-11.58 8.16-2.6 16.53-4.5701 25.02-5.8101 4.49-0.8697 9.07-1.2497 13.62-1.7697m55.42 56.02c-12.26 2.73-24.66 6.4-35.07 13.66-4.99 3.66-9.45 8.36-11.61 14.27-1.76 3.9-1.08 8.27-1.79 12.39-0.97 3.6799-2.89 7.0199-4.73 10.34-14.61-3.73-27.94-11.72-39.39-21.43-3.41-2.74-6.02-6.35-9.64-8.83 0.45 4.62 3.99 7.95 6.1 11.87-16.79 9.17-33.29 18.89-49.98 28.25-3.44 2.03-7.32 3.46-10.23 6.29 3.74-0.5801 7.04-2.51 10.52-3.86 18.49-7.6001 36.61-16.17 53.67-26.61 3.13 2.9 6.69 5.26 10.01 7.9401-21.22 16.08-42.71 31.88-65.26 46.07-4.24 2.78-9.01 4.8201-12.8 8.25 2.96-0.84 5.68-2.2699 8.41-3.63 20.16-9.83 39.99-20.63 58.02-34.04 6-4.04 10.99-9.29 16.7-13.68 6.5 3.24 13.09 6.3201 20 8.61-5.03 7.74-12.37 13.65-19.58 19.3-16.17 12.1-34.75 20.49-53.7 27.22-2.77 0.88-5.05 2.78-6.7 5.15 16.5-4.67 32.47-11.23 47.63-19.24 15.96-8.88 31.7-19.64 41.65-35.31 4.46-6.45 5.69-14.5 10.19-20.93 11.02-16.5 29.87-25.92 48.81-30.06 8.1-2.1699 16.52-2.34 24.73-3.85-11.93-2.9198-24.16-0.3997-35.96 1.8603z" fill="#F1D4A8" stroke="#F1D4A8"/>
  <path d="m1325.3 1668.6c5.6-1.9301 12.04-1.29 17.08 1.86 6.0199 3.54 9.84 10.53 9.5699 17.52-0.03 6.87-4.01 13.54-9.96 16.93-5.8201 3.45-13.46 3.59-19.41 0.3899-6.61-3.4399-11.02-10.83-10.67-18.3 0.03-8.1501 5.7301-15.77 13.39-18.4z" fill="#F5AB26" stroke="#F5AB26"/>
  <path d="m1967.9 1695.5c12.18-2.9299 24.65-0.29 36.7 1.99 13.1 3.1 26.64 6.9401 37.15 15.76 5.8099 4.87 10.25 11.99 10.18 19.76-0.28 5.51 2.6001 10.38 5.1501 15.04 17.54-4.6801 33.45-14.84 46.07-27.8 0.9202-0.91 1.9202-1.74 2.97-2.52-0.3499 4.7001-4.0398 7.9701-6.1099 11.95 17.5 9.47 34.64 19.61 52.01 29.35 2.8101 1.59 5.9199 2.8199 8.27 5.16-3.53-0.54-6.6301-2.3501-9.9001-3.6001-18.69-7.7599-37.18-16.18-54.34-26.99-3.0901 2.9701-6.6401 5.37-10 8.02 21.41 16.31 43.14 32.24 65.95 46.55 4.03 2.62 8.51 4.61 12.17 7.7999-7.6399-2.63-14.61-6.8899-21.87-10.36-18.62-9.71-36.8-20.49-53.05-33.86-2.7-2.46-5.3201-5.01-8.28-7.13-6.49 3.28-13.11 6.28-20 8.61 9.1499 12.83 22.45 22.07 35.93 29.9 9.98 5.8 20.66 10.26 31.41 14.46 4.52 1.6801 9.7898 2.8601 12.57 7.2301-21.61-6.04-42.44-15.2-61.3-27.4-14.11-9.66-27.85-21.93-33.35-38.63-4.24-11.06-12.52-20.28-22.41-26.63-11.56-7.88-25.26-11.93-38.91-14.35-5.6399-1.05-11.41-1.14-17.01-2.31z" fill="#E5BC84" stroke="#E5BC84"/>
  <path d="m423.06 1705.4c11.8-2.26 24.03-4.78 35.96-1.86-8.21 1.51-16.63 1.6801-24.73 3.85-18.94 4.14-37.79 13.56-48.81 30.06-4.5 6.4299-5.73 14.48-10.19 20.93-9.95 15.67-25.69 26.43-41.65 35.31-15.16 8.01-31.13 14.57-47.63 19.24 1.65-2.37 3.93-4.27 6.7-5.15 18.95-6.73 37.53-15.12 53.7-27.22 7.21-5.65 14.55-11.56 19.58-19.3-6.91-2.2899-13.5-5.37-20-8.61-5.71 4.39-10.7 9.64-16.7 13.68-18.03 13.41-37.86 24.21-58.02 34.04-2.73 1.3601-5.45 2.79-8.41 3.63 3.79-3.4299 8.56-5.47 12.8-8.25 22.55-14.19 44.04-29.99 65.26-46.07-3.32-2.6801-6.88-5.04-10.01-7.9401-17.06 10.44-35.18 19.01-53.67 26.61-3.48 1.35-6.78 3.2799-10.52 3.86 2.91-2.8301 6.79-4.26 10.23-6.29 16.69-9.36 33.19-19.08 49.98-28.25-2.11-3.92-5.65-7.25-6.1-11.87 3.62 2.48 6.23 6.09 9.64 8.83 11.45 9.7101 24.78 17.7 39.39 21.43 1.84-3.3201 3.76-6.66 4.73-10.34 0.71-4.12 0.03-8.49 1.79-12.39 2.16-5.91 6.62-10.61 11.61-14.27 10.41-7.2603 22.81-10.93 35.07-13.66z" fill="#E5BC84" stroke="#E5BC84"/>
  <path d="m1145.2 1712.2c5.13-1.24 10.76-0.53 15.28 2.28 7.26 4.15 11.11 13.25 9.28 21.39-1.87 9.35-11.2 16.57-20.76 15.79-10.19-0.2899-19.02-9.5599-18.89-19.73-0.3299-9.0499 6.3301-17.6 15.09-19.73z" fill="#F5AB26" stroke="#F5AB26"/>
  <path d="m823.48 1817.6c5.35-2.03 11.6-1.61 16.6 1.2 7.07 3.74 11.39 12.05 10.31 20-0.97 9.5801-9.75 17.63-19.41 17.62-10.34 0.55-19.98-8.26-20.47-18.57-0.79-8.6601 4.8-17.33 12.97-20.25z" fill="#F5AB26" stroke="#F5AB26"/>
  <path d="m950.45 1850.6c11.14-4.48 24.7 3.51 26.51 15.28 2.41 11.15-6.67 22.9-18 23.56-9.83 1.1-19.55-6.23-21.37-15.91-2.14-9.4799 3.66-19.83 12.86-22.93z" fill="#F5AB26" stroke="#F5AB26"/>
  <path d="m642 1972.9c5.88-0.0601 11.76-0.11 17.65-0.04 0 7.8201-0.02 15.64 0.0099 23.47 372.89 0.02 745.79 0.02 1118.7 0-0.02-3.63 0-7.25 0.14-10.85-27.16-0.47-54.33-0.0699-81.49-0.2-339.38-0.04-678.76 0.08-1018.1-0.0601 4.15-4.33 8.58-8.38 12.86-12.57 18.09 0.37 36.19 0.0599 54.28 0.1799 350 0.03 700-0.09 1050 0.0701v41.11h-1154c2e-4 -13.71-0.0098-27.41 2e-4 -41.11z" fill="#DC9A22" stroke="#DC9A22"/>
  <path d="m959.73 2014h248.29c-0.0701 119.67 0 239.34-0.03 359.01 0.17 10.79-0.4299 21.62 0.34 32.4l0.0601 0.6501c-8.12-0.8701-16.25-1.73-24.38-2.51l0.01 1.3499c-13.49-2.3599-27.31-2.97-40.92-4.6599-47.77-4.8799-95.52-9.8601-143.28-14.77-4.58-0.6299-9.3-0.4199-13.72-1.9199-9.88-2.03-20.09-2.24-30.1-3.5601-13.18-65.07-16.33-131.8-13.92-198.03 2.1099-56.31 8.4899-112.39 17.65-167.96z" fill="#282341" stroke="#282341"/>
  <path d="m1208 2014h247.25c9.8199 59.55 16.43 119.71 18.04 180.07 1.58 62.22-1.92 124.82-14.31 185.92-8.53 0.8899-17.06 1.78-25.59 2.6301-0.11 0.48-0.3201 1.4299-0.42 1.9099-60.34 5.76-120.63 12.45-180.96 18.44-5.6801 1.01-11.67 0.3501-17.03 2.8501-0.01-0.6802-0.03-2.04-0.04-2.72-7.36 0.8098-14.74 1.48-22.09 2.3198-1.49-0.0798-3.21 0.74-4.54-0.01-0.7699-10.78-0.1699-21.61-0.34-32.4 0.0301-119.67-0.0399-239.34 0.0301-359.01z" fill="#1C192E" stroke="#1C192E"/>
  <path d="m986.1 2383.6c4.42 1.5 9.14 1.29 13.72 1.9199 47.76 4.9099 95.51 9.8901 143.28 14.77 13.61 1.6899 27.43 2.3 40.92 4.6599 0.28 54.08-1.1901 108.15-3.15 162.19-4 106.04-10.25 211.98-17.31 317.85-3.6101 53.38-7.4501 106.74-11.59 160.07-0.4299 4.5701-0.5499 9.2-1.23 13.77-0.92 2.26-0.3099 4.71-0.47 7.1199-1.78 19.24 1.5 38.57 6.1699 57.2 4.7201 20.85 10.19 41.61 12.66 62.91 3.23 27.87 4.4 55.97 4.0701 84.02-0.0801 3.05 0.1499 6.24-0.9401 9.1899-3.0499 8.4299-8.04 16.35-15.2 21.86-7.98 6.22-18.03 9.27-28.02 9.98-17.93 1.1899-35.83-3.1501-52.37-9.8-7.1801-2.8601-10.58-10.63-11.91-17.75-2.25-12.45-1.1-25.25 1.11-37.61 10.03-45.92 13.39-93.01 14.35-139.91 0.2101-13.31 0.25-26.63-0.0699-39.93-0.0599-2.2-0.41-4.3301-1.05-6.3701-14.02-44-25.55-88.77-35.49-133.86-14.77-67.93-26.31-136.61-33.46-205.77-0.59-30.59 14.28-60.01 35.86-81.08-18.05-37.29-28.56-77.65-37.54-117.93-6.04-27.62-10.97-55.47-15.22-83.42-2.54-18-5.46-35.98-7.12-54.08z" fill="#F1D4A8" stroke="#F1D4A8"/>
  <path d="m1252 2403c60.33-5.99 120.62-12.68 180.96-18.44-5.99 49.07-13.62 98-24.59 146.23-8.61 36.97-18.75 73.94-35.39 108.21 21.17 20.63 35.72 49.21 35.95 79.12-0.71 10.7-2.2799 21.34-3.4199 32.02-11.44 90.71-28.66 180.8-53.38 268.86-3.89 13.65-7.89 27.27-12.23 40.78-1.78 5.8799-0.9 12.14-1.2401 18.21-0.2599 56.75 2.6801 113.9 14.76 169.5 2.0701 12.65 3.2301 25.83 0.25 38.44-1.5 6.6101-5.36 13.33-12.08 15.69-17.21 6.73-35.87 11.15-54.42 9.21-9.5199-1.0901-18.95-4.4299-26.35-10.62-6.4-5.29-10.88-12.55-13.84-20.22-1.34-3.1699-1.13-6.6599-1.1801-9.97-0.33-27.33 0.79-54.69 3.8301-81.85 2.0699-19.66 6.85-38.88 11.3-58.09 1.86-8.6201 4.36-17.11 5.7001-25.83 2.62-14.94 3.34-30.24 1.62-45.3-4.23-49.29-7.5801-98.68-11.06-148.03-7.28-106.23-13.72-212.52-18.12-318.91-2.45-62.02-4.4299-124.09-4.1-186.16 5.3601-2.5002 11.35-1.8403 17.03-2.8503z" fill="#E5BC84" stroke="#E5BC84"/>
  <path d="m1150.3 3065.9c0.16-2.4099-0.4501-4.8599 0.47-7.1199 1.03 9.45 3.49 18.69 5.04 28.08 9.2999 48.89 18.16 97.88 25.65 147.09 4.2699 29.82 6.6499 59.94 6.6399 90.08-0.0299 3.23 0.2101 6.6599-1.2599 9.7-3.8401 8.8901-11.63 15.26-19.4 20.65-15.14 10.03-32.03 17.1-49.18 22.92-6.1899 2.3-12.51-1.0701-18.21-3.27-16.93-7.6899-32.67-17.72-48.24-27.82-8.53-5.6199-11.32-16.57-11.39-26.22-0.22-9.72 2.64-19.1 4.29-28.57 4.5699-22.49 9.45-44.9 14.62-67.25 5.51-24.29 11.16-48.6 14.22-73.34 3.9-30.21 5.6699-60.69 5.5499-91.14 0.64 2.04 0.9901 4.1702 1.05 6.3701 0.3199 13.3 0.28 26.62 0.0699 39.93-0.96 46.9-4.3199 93.99-14.35 139.91-2.21 12.36-3.36 25.16-1.11 37.61 1.3301 7.1199 4.73 14.89 11.91 17.75 16.54 6.6499 34.44 10.99 52.37 9.8 9.99-0.71 20.04-3.76 28.02-9.98 7.1599-5.51 12.15-13.43 15.2-21.86 1.09-2.95 0.86-6.1399 0.9401-9.1899 0.33-28.05-0.8401-56.15-4.0701-84.02-2.47-21.3-7.9399-42.06-12.66-62.91-4.6697-18.63-7.9497-37.96-6.1697-57.2z" fill="#453F3F" stroke="#453F3F"/>
  <path d="m1268.3 3058.9c1.72 15.06 1 30.36-1.62 45.3-1.3401 8.72-3.8401 17.21-5.7001 25.83-4.45 19.21-9.23 38.43-11.3 58.09-3.04 27.16-4.16 54.52-3.8301 81.85 0.05 3.3101-0.1599 6.8 1.1801 9.97 2.96 7.6699 7.4399 14.93 13.84 20.22 7.4 6.1902 16.83 9.53 26.35 10.62 18.55 1.9399 37.21-2.48 54.42-9.21 6.72-2.3601 10.58-9.0801 12.08-15.69 2.9801-12.61 1.8201-25.79-0.25-38.44-12.08-55.6-15.02-112.75-14.76-169.5 0.3401-6.0701-0.5399-12.33 1.2401-18.21-0.0601 47.11 3.8199 94.41 14.38 140.4 8.1599 36.53 16.73 72.97 23.61 109.77 1.11 7.8 1.09 15.97-1.41 23.53-1.8 5.26-5.03 10.29-9.9301 13.17-15.77 10.2-31.69 20.37-48.92 27.97-5.3101 2-11.23 4.9199-16.92 2.7-16.02-5.4102-31.74-11.99-46.12-20.93-7.17-4.5901-14.13-9.8401-19.16-16.79-2.34-3.45-4.5399-7.3401-4.51-11.61-0.21-22.05 1.01-44.11 3.17-66.04 2.25-22.8 6.09-45.39 9.83-67.97 6.38-38.35 13.44-76.59 20.73-114.78 1.1397-6.7701 2.9398-13.42 3.5998-20.25z" fill="#3D3532" stroke="#3D3532"/>
 </g>
</svg>
