<?xml version="1.0" encoding="UTF-8"?>
<svg width="91.44mm" height="91.44mm" clip-rule="evenodd" fill-rule="evenodd" image-rendering="optimizeQuality" shape-rendering="geometricPrecision" text-rendering="geometricPrecision" version="1.1" viewBox="0 0 9144 9144" xmlns="http://www.w3.org/2000/svg">
 <defs>
  <style type="text/css">.fil1 {fill:white;fill-rule:nonzero} .fil0 {fill:url(#a)}</style>
  <linearGradient id="a" x1="10043" x2="-898.9" y1="6303" y2="2841" gradientUnits="userSpaceOnUse">
   <stop stop-color="#48CFAE" offset="0"/>
   <stop stop-color="#4FC0E8" offset="1"/>
  </linearGradient>
 </defs>
 <polygon class="fil0" points="0 0 9144 0 9144 9144 0 9144"/>
 <path class="fil1" d="m2668 3784l225 390h321c14-49 31-97 50-143 20-47 42-93 66-138l-226-226-436 117zm1904-247c286 0 545 116 732 303s303 446 303 732-116 545-303 732-446 303-732 303-545-116-732-303-303-446-303-732 116-545 303-732 446-303 732-303zm612 423c-156-157-373-254-612-254s-456 97-612 254c-157 156-254 373-254 612s97 456 254 612c156 157 373 254 612 254s456-97 612-254c157-156 254-373 254-612s-97-456-254-612zm-214-746c49 14 97 31 144 51 47 19 92 41 137 66l226-227-116-436-391 226v320zm79 207c-58-24-117-44-177-59-41-6-72-41-72-84v-433h1c0-29 15-57 42-73l525-303c7-5 15-9 24-11 45-12 91 15 103 60l157 585c10 30 3 63-21 87l-306 306c-27 27-70 33-104 13-55-34-112-63-172-88zm991 246l-227 226c25 45 47 91 66 138 20 46 37 94 51 143h320l226-390-436-117zm-392 153l307-308c20-20 51-29 81-21l590 158c7 2 14 4 20 8 41 24 55 75 31 116l-302 523c-14 28-43 47-76 47h-434c-38 0-72-26-82-64-15-63-35-124-60-183-24-58-52-114-85-167-23-34-20-80 10-109zm-2544 1657l226-226c-24-45-46-91-66-138-19-46-36-94-50-143h-321l-225 390 436 117zm392-153l-307 308c-21 20-51 29-82 21l-589-158c-7-2-14-5-20-8-40-23-54-75-31-115l301-522c13-29 43-49 77-49h433c38 0 73 26 82 64 15 63 36 124 60 183 25 59 53 114 85 167 24 34 21 80-9 109zm287 1152l391-225v-321c-49-14-97-31-144-51-47-19-92-41-137-66l-227 227 56 208 1 5 8 30h1l51 193zm518-104l-523 302c-8 5-16 9-26 12-45 12-91-15-104-60l-80-299-7-29-2-7-67-250c-10-29-3-63 20-86l307-307h1c26-27 69-33 103-13 55 34 112 63 172 88 57 24 117 44 177 59 40 6 71 41 71 83v434c0 29-15 58-42 73zm2175-1012l-226-390h-320c-14 49-31 97-51 143-19 47-41 93-66 138l227 226 436-117zm-104-517l303 525c5 7 8 15 11 24 12 45-15 91-60 103l-585 157c-29 10-63 3-86-20l-307-308c-27-27-33-69-13-103 34-55 63-113 88-173 24-57 44-116 59-176 6-41 41-71 83-71h434c29 0 57 15 73 42zm-895 1197l-226-227c-45 25-90 47-138 67-46 19-94 36-143 50v320l391 226 116-436zm-152-392l306 306c21 21 30 52 22 82l-158 590c-1 7-4 14-8 21-23 40-75 54-116 30l-523-302c-28-14-48-43-48-76v-433h1c0-38 26-73 64-82 63-16 124-36 184-61 58-24 114-52 167-84 33-24 79-21 109 9zm-1659-2544l227 227c45-25 90-47 137-66 47-20 95-36 144-51v-321l-391-225-117 436zm153 392l-307-307c-20-21-30-51-22-82 26-96 52-193 78-290l80-299h1c2-7 4-14 8-20 23-41 75-55 115-31l522 301c29 13 49 43 49 77v434c0 38-26 72-65 82-62 15-124 35-183 60-58 24-114 52-167 84-33 24-79 21-109-9zm-1047 805l-302-523c-5-7-9-16-12-26-12-45 15-91 60-103l585-157c29-10 63-3 86 20l307 308c27 27 33 69 12 103-33 55-63 113-88 173-24 57-43 116-58 176-7 41-42 71-84 71h-433c-29 0-58-15-73-42z"/>
</svg>
