<?xml version="1.0" encoding="UTF-8"?>
<svg width="91.44mm" height="91.44mm" clip-rule="evenodd" fill-rule="evenodd" image-rendering="optimizeQuality" shape-rendering="geometricPrecision" text-rendering="geometricPrecision" version="1.1" viewBox="0 0 9144 9144" xmlns="http://www.w3.org/2000/svg">
 <defs>
  <style type="text/css">.fil1 {fill:white;fill-rule:nonzero} .fil0 {fill:url(#a)}</style>
  <linearGradient id="a" x1="10043" x2="-898.9" y1="6303" y2="2841" gradientUnits="userSpaceOnUse">
   <stop stop-color="#48CFAE" offset="0"/>
   <stop stop-color="#4FC0E8" offset="1"/>
  </linearGradient>
 </defs>
 <polygon class="fil0" points="0 0 9144 0 9144 9144 0 9144"/>
 <path class="fil1" d="m4846 5772c49 0 88 39 88 88 0 48-39 88-88 88h-2391c-48 0-88-40-88-88v-3069c0-14 3-28 9-39v-1l1-1 1-1v-1l1-1v-1l1-1 1-1v-1l1-1c1-1 1-2 2-3v-1h1l1-1c1-2 2-4 4-5v-1l1-1c1-1 3-2 4-3l1-2c2-1 4-3 5-4l2-1v-1h1l3-2 1-1h1l1-1h1v-1h1l1-1 1-1h2v-1c12-5 25-9 39-9h4228c49 0 88 40 88 89v2213c0 49-39 89-88 89s-88-40-88-89v-2001l-1963 1964c-35 34-91 34-125 0l-1963-1964v2769h2302zm854-989h495c49 0 88 39 88 88v406h406c48 0 88 39 88 88v495c0 48-40 88-88 88h-406v405c0 49-39 89-88 89h-495c-49 0-88-40-88-89v-405h-406c-48 0-88-40-88-88v-495c0-49 40-88 88-88h406v-406c0-49 39-88 88-88zm407 176h-319v406c0 49-39 88-88 88h-405v318h405c49 0 88 40 88 89v405h319v-405c0-49 39-89 88-89h405v-318h-405c-49 0-88-39-88-88v-406zm363-2080h-3802l1901 1901 1901-1901z"/>
</svg>
